<?xml version="1.0" encoding="UTF-8" standalone="no"?>
<svg xmlns:svg="http://www.w3.org/2000/svg"
     xmlns="http://www.w3.org/2000/svg" version="1.1"
     width="360.0" height="185.0">
    <!-- Created with parliamentarch (https://github.com/Gouvernathor/parliamentarch/) -->
    <text x="180.0" y="175.0"
          style="font-size:36px;font-weight:bold;text-align:center;text-anchor:middle;font-family:sans-serif">93</text>
    <g style="fill:#67cdf4"
       id="0---------------">
        <title>עצמאות בטחונית</title>
        <circle cx="15.01" cy="170.28" r="7.78"/>
        <circle cx="34.49" cy="170.28" r="7.78"/>
        <circle cx="53.99" cy="170.28" r="7.78"/>
        <circle cx="73.50" cy="170.28" r="7.78"/>
        <circle cx="93.04" cy="170.28" r="7.78"/>
        <circle cx="17.71" cy="148.73" r="7.78"/>
        <circle cx="37.59" cy="148.58" r="7.78"/>
        <circle cx="57.32" cy="149.59" r="7.78"/>
        <circle cx="77.47" cy="149.59" r="7.78"/>
        <circle cx="23.21" cy="127.73" r="7.78"/>
        <circle cx="97.94" cy="149.62" r="7.78"/>
        <circle cx="43.91" cy="127.60" r="7.78"/>
        <circle cx="64.03" cy="129.74" r="7.78"/>
        <circle cx="31.41" cy="107.62" r="7.78"/>
        <circle cx="85.42" cy="130.08" r="7.78"/>
        <circle cx="53.29" cy="107.80" r="7.78"/>
        <circle cx="73.93" cy="111.27" r="7.78"/>
        <circle cx="42.18" cy="88.77" r="7.78"/>
        <circle cx="107.68" cy="130.75" r="7.78"/>
        <circle cx="65.54" cy="89.63" r="7.78"/>
        <circle cx="97.04" cy="112.51" r="7.78"/>
        <circle cx="55.33" cy="71.49" r="7.78"/>
        <circle cx="86.74" cy="94.69" r="7.78"/>
        <circle cx="80.38" cy="73.50" r="7.78"/>
        <circle cx="121.67" cy="114.78" r="7.78"/>
        <circle cx="70.63" cy="56.08" r="7.78"/>
        <circle cx="111.88" cy="97.56" r="7.78"/>
        <circle cx="102.12" cy="80.46" r="7.78"/>
        <circle cx="97.46" cy="59.77" r="7.78"/>
        <circle cx="87.82" cy="42.81" r="7.78"/>
        <circle cx="119.64" cy="68.96" r="7.78"/>
        <circle cx="129.36" cy="85.80" r="7.78"/>
        <circle cx="139.09" cy="102.65" r="7.78"/>
        <circle cx="106.60" cy="31.91" r="7.78"/>
        <circle cx="116.41" cy="48.76" r="7.78"/>
        <circle cx="138.81" cy="60.51" r="7.78"/>
        <circle cx="126.65" cy="23.57" r="7.78"/>
        <circle cx="136.79" cy="40.72" r="7.78"/>
        <circle cx="148.81" cy="77.70" r="7.78"/>
        <circle cx="158.93" cy="95.08" r="7.78"/>
        <circle cx="147.62" cy="17.93" r="7.78"/>
        <circle cx="159.12" cy="55.35" r="7.78"/>
        <circle cx="158.15" cy="35.81" r="7.78"/>
        <circle cx="169.47" cy="73.58" r="7.78"/>
        <circle cx="169.14" cy="15.08" r="7.78"/>
        <circle cx="180.00" cy="92.50" r="7.78"/>
        <circle cx="180.00" cy="53.61" r="7.78"/>
        <circle cx="180.00" cy="34.17" r="7.78"/>
        <circle cx="190.86" cy="15.08" r="7.78"/>
        <circle cx="190.53" cy="73.58" r="7.78"/>
        <circle cx="201.85" cy="35.81" r="7.78"/>
        <circle cx="200.88" cy="55.35" r="7.78"/>
        <circle cx="212.38" cy="17.93" r="7.78"/>
        <circle cx="201.07" cy="95.08" r="7.78"/>
        <circle cx="211.19" cy="77.70" r="7.78"/>
        <circle cx="223.21" cy="40.72" r="7.78"/>
        <circle cx="233.35" cy="23.57" r="7.78"/>
        <circle cx="221.19" cy="60.51" r="7.78"/>
        <circle cx="243.59" cy="48.76" r="7.78"/>
        <circle cx="253.40" cy="31.91" r="7.78"/>
        <circle cx="220.91" cy="102.65" r="7.78"/>
        <circle cx="230.64" cy="85.80" r="7.78"/>
    </g>
    <g style="fill:#65db73"
       id="1---------------">
        <title>הסכמים אזוריים</title>
        <circle cx="240.36" cy="68.96" r="7.78"/>
        <circle cx="272.18" cy="42.81" r="7.78"/>
        <circle cx="262.54" cy="59.77" r="7.78"/>
        <circle cx="257.88" cy="80.46" r="7.78"/>
        <circle cx="248.12" cy="97.56" r="7.78"/>
        <circle cx="289.37" cy="56.08" r="7.78"/>
        <circle cx="238.33" cy="114.78" r="7.78"/>
        <circle cx="279.62" cy="73.50" r="7.78"/>
        <circle cx="273.26" cy="94.69" r="7.78"/>
        <circle cx="304.67" cy="71.49" r="7.78"/>
        <circle cx="262.96" cy="112.51" r="7.78"/>
        <circle cx="294.46" cy="89.63" r="7.78"/>
        <circle cx="252.32" cy="130.75" r="7.78"/>
        <circle cx="317.82" cy="88.77" r="7.78"/>
        <circle cx="286.07" cy="111.27" r="7.78"/>
        <circle cx="306.71" cy="107.80" r="7.78"/>
        <circle cx="274.58" cy="130.08" r="7.78"/>
        <circle cx="328.59" cy="107.62" r="7.78"/>
        <circle cx="295.97" cy="129.74" r="7.78"/>
        <circle cx="316.09" cy="127.60" r="7.78"/>
        <circle cx="262.06" cy="149.62" r="7.78"/>
        <circle cx="336.79" cy="127.73" r="7.78"/>
        <circle cx="282.53" cy="149.59" r="7.78"/>
        <circle cx="302.68" cy="149.59" r="7.78"/>
        <circle cx="322.41" cy="148.58" r="7.78"/>
        <circle cx="342.29" cy="148.73" r="7.78"/>
        <circle cx="266.96" cy="170.28" r="7.78"/>
        <circle cx="286.50" cy="170.28" r="7.78"/>
        <circle cx="306.01" cy="170.28" r="7.78"/>
        <circle cx="325.51" cy="170.28" r="7.78"/>
        <circle cx="344.99" cy="170.28" r="7.78"/>
    </g>
</svg>

