<?xml version="1.0" encoding="UTF-8"?>
<svg id="Layer_2" data-name="Layer 2" xmlns="http://www.w3.org/2000/svg" viewBox="0 0 621.72 381.73">
  <defs>
    <style>
      .cls-1 {
        fill: #d01f46;
      }
    </style>
  </defs>
  <g id="Layer_1-2" data-name="Layer 1">
    <path class="cls-1" d="M336.18,72.25c-21.2-35.14-66-32.85-101.63-30.59-37.82,2.4-76.16,7.42-111.87,20.63-32.4,11.98-62.33,30.39-84.96,56.8C16.27,144.11,1.6,174.93.12,208.2s11.88,66.59,32.59,93.01c21.84,27.87,51.96,47.25,84.78,59.81,34.53,13.22,71.87,18.38,108.63,20.13s76.92-.64,114.87-6.77c37.25-6.02,73.88-15.88,109.1-29.43,33.87-13.03,67.54-28.77,97.43-49.52,27.84-19.33,52.47-43.66,65.51-75.45,14.36-35,10.49-75.31-8.48-107.77-17.28-29.57-44.83-52.17-74.17-69.1-30.31-17.49-63.82-29.54-98.14-36.18C362.15-6.64,288.65.29,221.15,22.85c-65.69,21.96-129.78,59.6-171.94,115.68-21.27,28.29-35.31,68.23-13.18,100.24,20.97,30.33,59.79,45.93,93.72,56.43,17.58,5.44,35.51,9.62,53.44,13.71,13.94,3.18,19.89-18.27,5.91-21.45-34.07-7.77-68.88-15.78-99.77-32.7-13.02-7.13-26.65-15.82-34.94-28.49-8.25-12.61-9.08-27.02-4.9-41.26,8.89-30.28,34.33-55.17,57.72-75.06,24.44-20.78,52.35-37.45,81.52-50.69,59.04-26.8,125.2-39.8,189.97-36.56,62.47,3.12,128.46,22.75,176.15,64.73,22.84,20.1,41.65,46.69,44.33,77.82,2.78,32.3-10.16,61.87-32.2,84.98-21.57,22.62-48.87,38.8-76.58,52.76-31.53,15.88-64.65,28.43-98.71,37.7-67.03,18.25-139.47,24.72-208.38,14.21-33.54-5.12-66.69-14.87-95.45-33.3-24.69-15.82-45.73-39.07-57.01-66.32-11.12-26.84-11.07-55.97-.46-82.88,10.46-26.51,30.72-49.51,53.9-65.71,27.75-19.39,60.4-30.05,93.43-36.18,17.03-3.16,34.26-5.02,51.53-6.25,17.41-1.23,35.85-3.26,53.2-.6,13.47,2.06,27.23,7.73,34.53,19.82,7.39,12.24,26.63,1.07,19.21-11.23h0Z"/>
  </g>
</svg>
