<?xml version="1.0" encoding="UTF-8"?>
<svg id="Layer_2" data-name="Layer 2" xmlns="http://www.w3.org/2000/svg" viewBox="0 0 86.51 53.62">
  <defs>
    <style>
      .cls-1 {
        opacity: .6;
      }

      .cls-1, .cls-2, .cls-3, .cls-4, .cls-5 {
        fill: #fff;
      }

      .cls-2 {
        opacity: .9;
      }

      .cls-3 {
        opacity: .8;
      }

      .cls-4 {
        opacity: .7;
      }
    </style>
  </defs>
  <g id="Layer_1-2" data-name="Layer 1">
    <g>
      <path id="path30" class="cls-4" d="M79.64,38.78l3.34,5,2.23-2.87-2.8-5.69-2.77,3.56Z"/>
      <path id="path34" class="cls-4" d="M63.77,39.83l-6.46,7.95v5.84l5.97-5.87.5-7.92Z"/>
      <path id="path38" class="cls-4" d="M69.39,32.86l.36,8.58,7.08-6.89-3.98-5.98-3.45,4.28Z"/>
      <path id="path42" class="cls-2" d="M76.75,23.74l-3.9,4.84,3.98,5.98,3.55-3.46-3.63-7.35Z"/>
      <path id="path46" class="cls-4" d="M86.51,29.95l-1.61-3.27-4.52,4.41,2.03,4.13,4.1-5.27Z"/>
      <path id="path50" class="cls-5" d="M79.64,38.78l2.77-3.56-2.03-4.13-3.55,3.46,2.82,4.23Z"/>
      <path id="path54" class="cls-1" d="M68.35,11.41h-2.84l-1.74,28.42,5.62-6.97-1.04-21.45Z"/>
      <path id="path58" class="cls-3" d="M63.77,39.83l-.5,7.92,6.47-6.31-.36-8.58-5.62,6.97Z"/>
      <path id="path62" class="cls-2" d="M67.81,2.43l-1.18-2.43s-2.52,3.85-2.52,5.35c0,2.37,1.12,3.94,1.12,3.94h3.46l.61-3.73h-2.22l.73-3.13Z"/>
      <g>
        <g>
          <path class="cls-5" d="M14.59,41.66l-.29-.4-.63.85.37.52h.45v4.19h4.26v-4.18l.25-.11.09-.88h-4.49ZM17.92,45.93h-2.62v-3.29h2.62v3.29Z"/>
          <polygon class="cls-5" points="20.41 41.26 21.63 41.86 21.63 44.5 20.81 44.5 20.81 42.47 19.88 41.99 20.41 41.26"/>
          <polygon class="cls-5" points="22.83 38.43 23.65 38.08 23.65 41.64 26.72 41.66 26.96 42.3 24.92 46.93 24.18 46.58 25.96 42.63 22.83 42.63 22.83 38.43"/>
          <polygon class="cls-5" points="33.29 41.26 31.89 44.94 29.78 45.74 29.65 45.26 31.8 41.88 31.25 41.26 29.37 44.24 28.55 41.26 27.83 41.84 29.23 46.93 32.51 45.72 33.91 41.88 33.29 41.26"/>
          <polygon class="cls-5" points="35.14 41.26 36.36 41.86 36.36 46.83 35.54 46.83 35.54 42.5 34.6 41.99 35.14 41.26"/>
          <polygon class="cls-5" points="37.72 42.64 37.36 42.11 37.99 41.26 38.28 41.66 41.2 41.66 41.2 46.83 40.38 46.83 40.38 42.64 37.72 42.64"/>
          <polygon class="cls-5" points="42.79 41.26 44.01 41.86 44.01 44.5 43.19 44.5 43.19 42.47 42.25 41.99 42.79 41.26"/>
          <polygon class="cls-5" points="45.69 41.26 45.98 41.66 48.59 41.66 48.59 45.79 49.29 45.76 49.29 46.69 44.78 46.88 44.78 45.95 47.77 45.82 47.77 42.64 45.42 42.64 45.06 42.11 45.69 41.26"/>
        </g>
        <g>
          <polygon class="cls-5" points="19.78 32.74 20.24 32.74 20.35 35.93 19.16 36.09 19.16 37.03 21.22 36.8 21.05 32.74 23.51 32.74 23.51 36.93 24.33 36.93 24.33 32.75 24.58 32.65 24.68 31.76 20.34 31.76 20.05 31.36 19.42 32.22 19.78 32.74"/>
          <polygon class="cls-5" points="26.02 31.36 27.24 31.96 27.24 34.6 26.42 34.6 26.42 32.57 25.49 32.09 26.02 31.36"/>
          <polygon class="cls-5" points="28.53 32.74 28.17 32.22 28.8 31.36 29.09 31.76 32.01 31.76 32.01 36.93 31.19 36.93 31.19 32.74 28.53 32.74"/>
          <polygon class="cls-5" points="33.9 31.36 34.2 31.76 36.8 31.76 36.8 35.89 37.51 35.86 37.51 36.8 33 36.98 33 36.05 35.98 35.92 35.98 32.74 33.64 32.74 33.27 32.22 33.9 31.36 33.9 31.36"/>
          <polygon class="cls-5" points="43.06 31.51 42.16 31.8 41.54 35.69 40.43 35.85 39.68 31.45 38.87 31.92 39.6 35.98 38.08 36.19 38.08 37.12 42.23 36.53 43.06 31.51 43.06 31.51"/>
          <polygon class="cls-5" points="44.26 32.74 47.61 32.74 47.61 36.93 48.43 36.93 48.43 32.75 48.68 32.65 48.78 31.76 44.82 31.76 44.52 31.36 43.89 32.22 44.26 32.74"/>
          <polygon class="cls-5" points="45.05 33.76 45.05 36.93 44.23 36.93 44.23 34.07 45.05 33.76"/>
        </g>
        <g>
          <polygon class="cls-5" points=".37 23.03 3.72 23.03 3.72 27.22 4.54 27.22 4.54 23.04 4.79 22.94 4.88 22.05 .92 22.05 .63 21.65 0 22.51 .37 23.03"/>
          <polygon class="cls-5" points="1.16 24.05 1.16 27.22 .34 27.22 .34 24.36 1.16 24.05"/>
          <polygon class="cls-5" points="5.89 22.23 6.31 27.32 10.13 26.76 10.71 22.05 8.37 22.05 7.91 23.03 9.75 23.03 9.38 25.93 7.08 26.23 6.71 21.62 5.89 22.23"/>
          <polygon class="cls-5" points="11.96 21.65 13.18 22.25 13.18 24.89 12.36 24.89 12.36 22.86 11.43 22.38 11.96 21.65"/>
          <path class="cls-5" d="M15,22.06l-.26-.4-.63.85.29.52h.22l.51,4.29,3.46-.47.79-4.79h-4.38ZM17.9,26l-2.08.23-.35-3.21h2.9l-.47,2.97Z"/>
          <polygon class="cls-5" points="20.55 23.03 20.18 22.51 20.81 21.65 21.1 22.05 24.02 22.05 24.02 27.22 23.2 27.22 23.2 23.03 20.55 23.03 20.55 23.03"/>
          <polygon class="cls-5" points="25.92 21.65 26.21 22.05 28.81 22.05 28.81 26.18 29.52 26.15 29.52 27.08 25.01 27.27 25.01 26.34 27.99 26.21 27.99 23.03 25.65 23.03 25.28 22.51 25.92 21.65"/>
          <polygon class="cls-5" points="30.24 21.65 31.46 22.25 31.46 24.89 30.64 24.89 30.64 22.86 29.71 22.38 30.24 21.65"/>
          <polygon class="cls-5" points="34.5 22.25 34.5 26.95 32.07 27.44 32.07 26.51 33.68 26.15 33.68 22.89 32.74 22.38 33.28 21.65 34.5 22.25 34.5 22.25"/>
          <polygon class="cls-5" points="35.89 21.65 37.11 22.25 37.11 27.22 36.29 27.22 36.29 22.89 35.36 22.38 35.89 21.65"/>
          <polygon class="cls-5" points="42.29 25.14 42.82 22.05 41.95 22.05 41.54 24.25 39.48 21.78 38.9 22.11 38.13 27.22 38.96 27.22 39.55 23.3 43 27.32 43.38 26.45 42.29 25.14"/>
          <polygon class="cls-5" points="44.26 23.03 47.61 23.03 47.61 27.22 48.43 27.22 48.43 23.04 48.68 22.94 48.77 22.05 44.81 22.05 44.52 21.65 43.89 22.51 44.26 23.03 44.26 23.03"/>
          <polygon class="cls-5" points="45.04 24.05 45.04 27.22 44.22 27.22 44.22 24.36 45.04 24.05"/>
        </g>
      </g>
    </g>
  </g>
</svg>