<svg xmlns="http://www.w3.org/2000/svg" xmlns:xlink="http://www.w3.org/1999/xlink" xmlns:inkscape="http://www.inkscape.org/namespaces/inkscape" version="1.1" width="442" height="164" viewBox="0 0 442 164">
<defs>
<clipPath id="clip_1">
<path transform="matrix(1,0,0,-1,0,164)" d="M0 164H442V0H0Z"/>
</clipPath>
</defs>
<path transform="matrix(1,0,0,-1,30.3428,84.0815)" d="M0 0H-11.884L-12.661 1.056-14.327-1.193-13.354-2.581H-12.161V-13.66H-.916V-2.61L-.25-2.332ZM-3.083-11.271H-9.995V-2.5810004H-3.083ZM3.498 1.056 6.718-.526V-7.496H4.553V-2.138L2.081-.861ZM9.884 8.552 12.049 9.468V.056L20.157 0 20.795-1.693 15.409-13.91 13.466-12.994 18.157-2.554H9.884ZM37.538 1.056 33.845-8.662 28.265-10.773 27.903-9.496 33.595-.583 32.151 1.056 27.181-6.802 25.016 1.056 23.1-.472 26.794-13.91 35.483-10.717 39.177-.583ZM42.425 1.056 45.645-.526V-13.66H43.479V-2.221L41.009-.861ZM49.255-2.581 48.282-1.193 49.948 1.056 50.726 0H58.444V-13.66H56.278V-2.581ZM62.637 1.056 65.856-.526V-7.496H63.692V-2.138L61.22-.861ZM70.3 1.056 71.077 0H77.964V-10.911L79.823-10.828V-13.298L67.912-13.798V-11.328L75.798-10.994V-2.581H69.606L68.634-1.193ZM90.429-2.581H91.623L91.928-11.022 88.79-11.44V-13.91L94.231-13.298 93.788-2.581H100.285V-13.66H102.451V-2.61L103.118-2.332 103.367 0H91.9L91.122 1.056 89.457-1.193ZM106.921 1.056 110.142-.526V-7.496H107.976V-2.138L105.505-.861ZM113.558-2.581 112.585-1.193 114.251 1.056 115.028 0H122.747V-13.66H120.581V-2.581ZM127.744 1.056 128.521 0H135.408V-10.911L137.269-10.828V-13.298L125.356-13.798V-11.328L133.241-10.994V-2.581H127.05L126.077-1.193ZM151.955 .667 149.567-.083 147.929-10.383 144.986-10.8 143.015 .833 140.876-.416 142.793-11.133 138.794-11.689V-14.16L149.761-12.604ZM155.12-2.581H163.978V-13.66H166.142V-2.61L166.809-2.332 167.059 0H156.591L155.813 1.056 154.148-1.193ZM157.202-5.274V-13.66H155.036V-6.108ZM177.942-2.581H186.8V-13.66H188.964V-2.61L189.631-2.332 189.88 0H179.413L178.636 1.056 176.97-1.193ZM180.024-5.274V-13.66H177.858V-6.108ZM192.546-.472 193.656-13.91 203.735-12.438 205.29 0H199.098L197.877-2.581H202.735L201.765-10.244 195.683-11.05 194.712 1.14ZM208.594 1.056 211.813-.526V-7.496H209.648V-2.138L207.179-.861ZM216.618 0H228.195L226.114-12.661 216.979-13.91 215.618-2.581H215.034L214.258-1.193 215.923 1.056ZM224.28-10.439 225.53-2.581H217.868L218.783-11.05ZM231.277-2.581 230.306-1.193 231.97 1.056 232.75 0H240.469V-13.66H238.302V-2.581ZM245.466 1.056 246.243 0H253.13V-10.911L254.989-10.828V-13.298L243.077-13.798V-11.328L250.962-10.994V-2.581H244.772L243.798-1.193ZM256.905 1.056 260.124-.526V-7.496H257.96V-2.138L255.489-.861ZM268.147-.526V-12.937L261.736-14.244V-11.771L265.982-10.828V-2.221L263.513-.861 264.929 1.056ZM271.841 1.056 275.062-.526V-13.66H272.897V-2.221L270.425-.861ZM288.751-8.163 290.14 0H287.835L286.751-5.803 281.31 .722 279.78-.138 277.755-13.66H279.948L281.503-3.303 290.61-13.91 291.638-11.632ZM293.94-2.581H302.8V-13.66H304.965V-2.61L305.63-2.332 305.882 0H295.415L294.635 1.056 292.97-1.193ZM296.024-5.274V-13.66H293.857V-6.108Z" fill="#231f20"/>
<g clip-path="url(#clip_1)">
<path transform="matrix(1,0,0,-1,24.2031,111.458499)" d="M0 0V1.664H-8.678V0H-5.334V-10.542H-3.363V0ZM11.23-10.542V1.664H9.276V-3.382H3.508V1.664H1.537V-10.542H3.508V-5.063H9.276V-10.542ZM20.846-10.542V-8.86H16.38V-5.063H20.629V-3.453H16.38V.019H20.846V1.664H14.408V-10.542ZM37.047-10.542V1.664H35.094V-3.382H29.326V1.664H27.355V-10.542H29.326V-5.063H35.094V-10.542ZM46.664-10.542V-8.86H42.197V-5.063H46.447V-3.453H42.197V.019H46.664V1.664H40.227V-10.542ZM57.35-6.853C57.35-5.587 56.607-4.376 55.018-4.068V-4.032C56.266-3.599 57.097-2.496 57.097-1.247 57.097 .633 55.723 1.719 53.064 1.719 51.582 1.719 50.189 1.682 49.23 1.664V-10.542C50.588-10.56 51.817-10.596 52.558-10.596 56.303-10.596 57.35-8.445 57.35-6.853M55.035-1.554C55.035-2.784 54.078-3.526 52.252-3.526 51.836-3.526 51.527-3.526 51.201-3.508V.108C51.672 .126 52.196 .145 52.739 .145 54.475 .145 55.035-.56 55.035-1.554M55.27-6.889C55.27-8.119 54.42-8.987 52.631-8.987 51.998-8.987 51.51-8.951 51.201-8.897V-5.009C51.473-4.99 52.105-4.99 52.305-4.99 54.023-4.99 55.27-5.496 55.27-6.889M68.087-10.542 64.869-6.292C64.563-5.895 64.182-5.425 63.838-4.99 65.827-4.774 67.293-3.526 67.293-1.574 67.293 .85 65.557 1.736 63.025 1.736 61.65 1.736 60.638 1.719 59.752 1.664V-10.542H61.723V-5.262H61.813L65.61-10.542ZM65.23-1.79C65.23-3.001 64.271-3.815 62.68-3.815 62.246-3.815 61.904-3.797 61.723-3.778V.091C62.012 .108 62.373 .126 62.754 .126 64.398 .126 65.23-.451 65.23-1.79M76.455-10.542V-8.86H71.989V-5.063H76.238V-3.453H71.989V.019H76.455V1.664H70.019V-10.542ZM94.141 1.664H92.168L90.27-5.966C90.09-6.637 89.962-7.34 89.836-8.102H89.818C89.691-7.323 89.51-6.509 89.329-5.858L87.195 1.664H85.043L82.965-5.84C82.747-6.582 82.604-7.359 82.476-8.154H82.457C82.35-7.34 82.205-6.564 81.987-5.75L80.107 1.664H78.009L81.174-10.542H83.488L85.55-2.966C85.749-2.206 85.894-1.464 85.983-.706H86.002C86.129-1.482 86.255-2.26 86.471-3.001L88.552-10.542H90.976ZM109.636-5.84V1.664H107.701V-5.984C107.701-8.264 106.797-9.095 104.807-9.095 102.547-9.095 102.004-7.866 102.004-6.238V1.664H100.035V-6.382C100.035-8.625 100.848-10.723 104.682-10.723 107.881-10.723 109.636-9.095 109.636-5.84M122.617-10.542V1.664H120.701V-1.952C120.701-3.743 120.754-6.365 120.826-7.756 120.375-6.871 119.887-5.895 119.345-4.99L115.313 1.664H112.727V-10.542H114.643V-6.437C114.643-4.701 114.606-2.224 114.533-1.03 114.914-1.845 115.348-2.712 115.89-3.599L120.066-10.542ZM127.767 1.664H125.797V-10.541H127.767ZM140.188 1.664H138.162L135.539-5.733C135.18-6.727 134.961-7.486 134.745-8.335H134.727C134.491-7.432 134.201-6.564 133.949-5.858L131.381 1.664H129.211L133.551-10.542H135.793ZM148.068-10.542V-8.86H143.603V-5.063H147.853V-3.453H143.603V.019H148.068V1.664H141.633V-10.542ZM158.973-10.542 155.754-6.292C155.447-5.895 155.067-5.425 154.724-4.99 156.713-4.774 158.178-3.526 158.178-1.574 158.178 .85 156.441 1.736 153.91 1.736 152.535 1.736 151.523 1.719 150.637 1.664V-10.542H152.607V-5.262H152.699L156.496-10.542ZM156.115-1.79C156.115-3.001 155.158-3.815 153.566-3.815 153.133-3.815 152.789-3.797 152.607-3.778V.091C152.896 .108 153.26 .126 153.639 .126 155.284 .126 156.115-.451 156.115-1.79M167.521-6.853C167.521-3.038 162.189-3.942 162.189-1.501 162.189-.488 162.966 .217 164.484 .217 165.207 .217 165.985 .091 166.691-.127L166.799 1.628C166.059 1.754 165.317 1.845 164.594 1.845 161.755 1.845 160.109 .38 160.109-1.718 160.109-5.66 165.443-4.575 165.443-7.143 165.443-8.462 164.357-9.023 163.02-9.023 162.134-9.023 161.176-8.825 160.488-8.571L160.38-10.433C161.086-10.615 161.953-10.723 162.84-10.723 165.751-10.723 167.521-9.095 167.521-6.853M171.754 1.664H169.783V-10.541H171.754ZM181.988 0V1.664H173.309V0H176.653V-10.542H178.625V0ZM192.078 1.664H189.998L188.281-1.971C187.902-2.748 187.539-3.526 187.268-4.249H187.232C186.979-3.599 186.689-2.911 186.364-2.188L184.556 1.664H182.403L186.22-6.185V-10.542H188.19V-6.185ZM208.189-4.286C208.189-.198 205.984 1.845 202.691 1.845 199.473 1.845 196.833-.524 196.833-4.575 196.833-8.318 198.623-10.723 202.33-10.723 205.568-10.723 208.189-8.335 208.189-4.286M206.092-4.484C206.092-7.522 204.283-8.968 202.477-8.968 200.07-8.968 198.932-7.107 198.932-4.34 198.932-1.41 200.631 .108 202.512 .108 204.79 .108 206.092-1.536 206.092-4.484M216.652 0V1.664H210.287V-10.542H212.258V-5.19H216.416V-3.58H212.258V0ZM225.855-7.25V1.664H223.885V-7.16C223.885-8.644 223.378-9.023 222.456-9.023 222.021-9.023 221.588-8.933 221.279-8.825V-10.542C221.659-10.615 222.111-10.687 222.691-10.687 225.043-10.687 225.855-9.277 225.855-7.25M235.383-10.542V-8.86H230.918V-5.063H235.166V-3.453H230.918V.019H235.383V1.664H228.945V-10.542ZM246.287-10.542 243.068-6.292C242.762-5.895 242.381-5.425 242.037-4.99 244.025-4.774 245.491-3.526 245.491-1.574 245.491 .85 243.754 1.736 241.225 1.736 239.85 1.736 238.836 1.719 237.948 1.664V-10.542H239.921V-5.262H240.012L243.809-10.542ZM243.43-1.79C243.43-3.001 242.471-3.815 240.881-3.815 240.445-3.815 240.102-3.797 239.921-3.778V.091C240.209 .108 240.572 .126 240.952 .126 242.598 .126 243.43-.451 243.43-1.79M257.658-5.84V1.664H255.725V-5.984C255.725-8.264 254.82-9.095 252.834-9.095 250.572-9.095 250.029-7.866 250.029-6.238V1.664H248.059V-6.382C248.059-8.625 248.871-10.723 252.705-10.723 255.904-10.723 257.658-9.095 257.658-5.84M267.316-6.853C267.316-3.038 261.982-3.942 261.982-1.501 261.982-.488 262.76 .217 264.278 .217 265.003 .217 265.778 .091 266.484-.127L266.593 1.628C265.852 1.754 265.109 1.845 264.387 1.845 261.549 1.845 259.903 .38 259.903-1.718 259.903-5.66 265.236-4.575 265.236-7.143 265.236-8.462 264.151-9.023 262.813-9.023 261.928-9.023 260.969-8.825 260.281-8.571L260.174-10.433C260.877-10.615 261.747-10.723 262.631-10.723 265.545-10.723 267.316-9.095 267.316-6.853M279.088-10.542 274.657 1.664H272.47L268.093-10.542H270.082L271.023-7.849H275.959L276.9-10.542ZM275.436-6.275H271.528L272.904-2.496C273.139-1.845 273.338-1.176 273.465-.56H273.499C273.646-1.23 273.809-1.808 274.043-2.44ZM286.773-10.542V-8.825H282.578V1.664H280.605V-10.542ZM294.764-10.542V-8.86H290.299V-5.063H294.547V-3.453H290.299V.019H294.764V1.664H288.326V-10.542ZM311.203-10.542 309.338 1.664H306.971L304.564-5.46C304.275-6.365 304.077-6.98 303.896-7.883H303.86C303.715-7.088 303.479-6.275 303.191-5.389L300.84 1.664H298.49L296.664-10.542H298.671L299.448-4.23C299.575-3.074 299.702-2.116 299.773-1.066H299.811C299.954-1.952 300.263-3.001 300.586-3.959L302.775-10.542H304.818L307.113-3.453C307.423-2.55 307.604-1.755 307.748-1.066H307.785C307.875-1.862 307.965-2.748 308.164-4.051L309.123-10.542Z" fill="#231f20"/>
<path transform="matrix(1,0,0,-1,414.3711,116.3882)" d="M0 0 8.818-13.229 14.721-5.635 7.309 9.414Z" fill="#157987"/>
<path transform="matrix(1,0,0,-1,372.4258,119.1509)" d="M0 0-17.086-21.015V-36.458L-1.309-20.94Z" fill="#7f8367"/>
<path transform="matrix(1,0,0,-1,387.2803,100.7236)" d="M0 0 .944-22.69 19.646-4.471 9.12 11.323Z" fill="#00a294"/>
<path transform="matrix(1,0,0,-1,406.7119,76.6167)" d="M0 0-10.312-12.784 .214-28.578 9.601-19.437Z" fill="#850c1b"/>
<path transform="matrix(1,0,0,-1,432.5156,93.0464)" d="M0 0-4.252 8.643-16.203-3.007-10.836-13.928Z" fill="#329ab9"/>
<path transform="matrix(1,0,0,-1,414.3711,116.3882)" d="M0 0 7.309 9.414 1.941 20.335-7.445 11.194Z" fill="#2a1017"/>
<path transform="matrix(1,0,0,-1,384.5293,44.033205)" d="M0 0H-7.502L-12.104-75.118 2.751-56.69Z" fill="#5cb696"/>
<path transform="matrix(1,0,0,-1,372.4258,119.1509)" d="M0 0-1.309-20.94 15.799-4.263 14.854 18.427Z" fill="#00534b"/>
<path transform="matrix(1,0,0,-1,383.1016,20.296402)" d="M0 0-3.115 6.42C-3.115 6.42-9.772-3.763-9.772-7.719-9.772-13.996-6.82-18.138-6.82-18.138H2.315L3.932-8.284H-1.934Z" fill="#850c1b"/>
</g>
</svg>
