<svg width="251" height="69" viewBox="0 0 251 69" fill="none" xmlns="http://www.w3.org/2000/svg">
<path d="M170.926 40.4008V66.5019C172.808 67.191 174.691 67.5356 176.658 67.5356C178.626 67.5356 180.08 67.2772 182.475 66.9326V40.573C179.652 40.6592 177.685 40.7453 177 40.7453C175.717 40.7453 173.578 40.6592 170.926 40.4869V40.4008Z" fill="#595757"/>
<path d="M177 19.0375C175.375 19.0375 173.236 19.2959 170.926 19.8128V30.6667C173.664 30.4944 175.888 30.3221 177 30.3221C178.112 30.3221 179.567 30.3221 182.475 30.4944V19.4682C179.909 19.2098 177.941 19.0375 177 19.0375Z" fill="#595757"/>
<path d="M159.463 22.8278V31.7004C161.602 31.5282 163.826 31.2697 166.05 31.0974V21.0188C163.826 21.6218 161.516 22.2248 159.463 22.9139V22.8278Z" fill="#595757"/>
<path d="M187.951 65.8989C191.629 65.1236 195.735 64.176 200.184 63.0562V39.8839C195.735 40.0562 191.544 40.2285 187.951 40.4008V65.985V65.8989Z" fill="#595757"/>
<path d="M187.951 20.0712V30.6667C191.458 30.839 195.65 31.0112 200.184 31.1835V21.6217C195.735 21.0187 191.544 20.5019 187.951 20.0712Z" fill="#595757"/>
<path d="M152.02 51.8577C152.02 51.8577 153.56 53.7528 156.041 56.251V39.1948C154.416 39.0225 153.047 38.9364 152.02 38.8502V51.8577Z" fill="#595757"/>
<path d="M159.463 59.3522C161.431 61.075 163.655 62.7117 166.05 64.1761V40.0563C163.826 39.884 161.602 39.7117 159.463 39.5394V59.4383V59.3522Z" fill="#595757"/>
<path d="M177 11.7154C183.502 11.7154 240.306 23.6892 247.492 25.2397V21.0188C247.492 21.0188 246.466 20.6742 244.755 20.1573V23.0862C244.327 23 243.814 22.9139 243.386 22.8278V19.8128C242.274 19.4682 240.991 19.0375 239.536 18.6068V22.0525C239.023 21.9663 238.424 21.7941 237.911 21.7079V18.1761C236.457 17.7454 234.917 17.2285 233.291 16.7978V20.7603C232.607 20.5881 232.008 20.5019 231.324 20.3296V16.1948C229.613 15.6779 227.816 15.1611 226.02 14.5581V19.1236C225.164 18.9514 224.394 18.7791 223.624 18.6068V13.869C221.229 13.1798 218.748 12.4045 216.267 11.7154V17.0562C215.241 16.7978 214.214 16.6255 213.187 16.3671V10.854C210.108 9.99256 207.113 9.13113 204.034 8.26971V14.2997C202.579 13.9551 201.296 13.6967 200.013 13.3521V7.14986C195.65 6.03001 191.458 4.91016 187.779 4.13488V10.5956C185.384 10.0787 183.673 9.73413 182.304 9.4757V2.92888C179.823 2.49817 177.856 2.23975 176.487 2.23975C175.118 2.23975 172.637 2.58432 170.755 3.18731V9.99256C169.215 10.5094 167.504 11.1124 165.879 11.7154V5.16859C163.484 6.37458 161.259 7.92514 159.292 9.4757V14.5581C158.009 15.1611 156.896 15.6779 155.87 16.1948V12.4907C153.389 14.9888 151.849 17.1424 151.849 18.0038V20.5881C156.896 18.1761 171.097 11.7154 176.829 11.7154H177Z" fill="#595757"/>
<path d="M204.119 62.0226C207.113 61.2473 210.193 60.472 213.273 59.6106V39.281C210.193 39.3671 207.113 39.5394 204.119 39.6256V62.0226Z" fill="#595757"/>
<path d="M152.02 25.2397V32.3895C153.047 32.3034 154.416 32.1311 156.041 31.9588V23.8615C154.416 24.3783 152.961 24.8952 152.02 25.2397Z" fill="#595757"/>
<path d="M244.755 50.8241C246.551 50.3072 247.492 50.0488 247.492 50.0488V37.9027C246.894 37.9027 245.953 37.9027 244.755 37.9889V50.8241Z" fill="#595757"/>
<path d="M233.291 26.3596V32.7342C234.917 32.7342 236.457 32.9064 237.911 32.9064V27.0488C236.457 26.8765 234.917 26.618 233.291 26.3596Z" fill="#595757"/>
<path d="M239.536 52.3746C240.991 51.9439 242.274 51.5993 243.386 51.2547V38.075C242.274 38.075 240.991 38.1611 239.536 38.2472V52.3746Z" fill="#595757"/>
<path d="M233.291 54.0974C234.917 53.6667 236.457 53.1498 237.911 52.8052V38.2472C236.457 38.2472 234.917 38.3333 233.291 38.4195V54.0974Z" fill="#595757"/>
<path d="M239.536 27.221V32.9064C240.991 32.9064 242.274 32.9926 243.386 33.0787V27.7379C242.274 27.5656 240.991 27.3933 239.536 27.1349V27.221Z" fill="#595757"/>
<path d="M244.755 27.9963V33.1648C245.953 33.1648 246.894 33.251 247.492 33.251V28.3409C246.894 28.2547 245.953 28.0824 244.755 27.9102V27.9963Z" fill="#595757"/>
<path d="M216.353 58.8353C218.834 58.1461 221.315 57.457 223.71 56.854V38.9364C221.315 39.0225 218.834 39.1087 216.353 39.281V58.9214V58.8353Z" fill="#595757"/>
<path d="M204.119 22.2247V31.3558C207.113 31.5281 210.193 31.6142 213.273 31.7865V23.5169C210.193 23.0862 207.113 22.6554 204.119 22.2247Z" fill="#595757"/>
<path d="M216.353 23.9476V31.9589C218.834 32.045 221.315 32.2173 223.71 32.3034V24.9813C221.315 24.6368 218.834 24.2922 216.353 23.9476Z" fill="#595757"/>
<path d="M226.02 25.3259V32.3896C227.816 32.3896 229.613 32.5619 231.324 32.648V26.1012C229.613 25.8428 227.816 25.5844 226.02 25.3259Z" fill="#595757"/>
<path d="M226.02 56.1648C227.816 55.648 229.613 55.1311 231.324 54.7004V38.5918C229.613 38.5918 227.816 38.7641 226.02 38.8502V56.251V56.1648Z" fill="#595757"/>
<path d="M10.5327 56.2284L14.8371 61.7546C15.4828 62.5131 16.0208 63.0549 16.4513 63.2716C16.7741 63.4884 17.0969 63.5967 17.4198 63.5967V63.9218H10.9632V63.5967C11.3936 63.5967 11.6088 63.5967 11.7164 63.38C11.824 63.38 11.9316 63.1633 11.9316 63.0549C11.9316 62.8382 11.6088 62.2964 11.0708 61.6463L8.2729 58.0705L7.84246 58.5039V61.863C7.84246 62.5131 7.84246 62.9466 7.95007 63.0549C7.95007 63.1633 8.16529 63.38 8.38051 63.4884C8.59573 63.5967 8.91856 63.7051 9.34901 63.7051V64.0301H3.10761V63.7051H3.53805C3.86088 63.7051 4.18371 63.7051 4.39893 63.4884C4.50654 63.4884 4.72176 63.2716 4.72176 63.0549C4.72176 62.9466 4.72176 62.5131 4.72176 61.863V53.7362C4.72176 53.0861 4.72176 52.6527 4.72176 52.5443C4.72176 52.4359 4.50654 52.2192 4.29132 52.1109C4.0761 52.0025 3.86088 51.8942 3.43044 51.8942H3V51.5691H9.13378V51.8942C8.70334 51.8942 8.38051 51.8942 8.16529 52.1109C8.05768 52.1109 7.84246 52.3276 7.84246 52.5443C7.84246 52.6527 7.73485 53.0861 7.73485 53.7362V57.6371L12.3621 53.9529C13.0078 53.4112 13.3306 52.9777 13.3306 52.761C13.3306 52.5443 13.223 52.3276 12.9001 52.2192C12.7925 52.2192 12.4697 52.1109 11.9316 52.1109V51.7858H16.7741V52.1109C16.3437 52.1109 16.0208 52.1109 15.8056 52.3276C15.5904 52.4359 14.9447 52.8694 14.0839 53.6279L10.4251 56.5535L10.5327 56.2284Z" fill="#595757"/>
<path d="M21.2938 55.3615V56.445C21.7243 56.0116 22.1547 55.5782 22.5851 55.3615C23.0156 55.1447 23.446 55.0364 23.8765 55.0364C24.3069 55.0364 24.845 55.1447 25.2754 55.4698C25.5982 55.7949 25.9211 56.1199 26.0287 56.6617C26.0287 56.9868 26.1363 57.6369 26.1363 58.7205V62.0796C26.1363 62.7297 26.1363 63.1632 26.3515 63.2715C26.4591 63.3799 26.6743 63.4882 27.1048 63.5966V63.9216H22.8004V63.5966C23.1232 63.5966 23.3384 63.3799 23.446 63.1631C23.446 63.0548 23.5536 62.6214 23.5536 62.0796V58.2871C23.5536 57.6369 23.5536 57.0952 23.5536 56.9868C23.5536 56.7701 23.446 56.6617 23.2308 56.5534C23.1232 56.5534 22.908 56.445 22.8004 56.445C22.2623 56.445 21.8319 56.7701 21.2938 57.5286V62.0796C21.2938 62.7297 21.2938 63.1632 21.509 63.2715C21.6166 63.4882 21.8319 63.5966 22.1547 63.5966V63.9216H17.8503V63.5966C18.1731 63.5966 18.4959 63.4882 18.6036 63.2715C18.6036 63.1632 18.7112 62.7297 18.7112 62.0796V57.2035C18.7112 56.5534 18.7112 56.1199 18.4959 56.0116C18.3883 55.9032 18.1731 55.7949 17.7427 55.6865V55.3615H21.1862H21.2938Z" fill="#595757"/>
<path d="M35.4984 59.3707H30.8712C30.8712 60.4542 31.194 61.4294 31.732 62.0796C32.1625 62.6214 32.7005 62.8381 33.2386 62.8381C33.7766 62.8381 33.8842 62.8381 34.2071 62.513C34.5299 62.2963 34.8527 61.9712 35.1756 61.4294L35.4984 61.6462C35.068 62.6214 34.5299 63.2715 33.9919 63.7049C33.4538 64.1384 32.8081 64.2467 32.0549 64.2467C30.7635 64.2467 29.7951 63.7049 29.1494 62.7297C28.6113 61.9712 28.3961 60.996 28.3961 59.8041C28.3961 58.6122 28.8266 57.2035 29.5798 56.3367C30.3331 55.4698 31.3016 55.0364 32.2701 55.0364C33.2386 55.0364 33.8842 55.3614 34.5299 56.1199C35.1756 56.8784 35.4984 57.8537 35.606 59.2623L35.4984 59.3707ZM33.2386 58.7205C33.2386 57.7453 33.2386 57.0952 33.131 56.6617C33.131 56.3367 32.8081 56.0116 32.5929 55.7949C32.4853 55.6865 32.2701 55.5782 32.0549 55.5782C31.732 55.5782 31.5168 55.6865 31.3016 56.0116C30.9788 56.5534 30.7635 57.3119 30.7635 58.2871V58.6122H33.2386V58.7205Z" fill="#595757"/>
<path d="M41.8473 55.1448V58.0704C41.9549 58.0704 41.6321 58.0704 41.6321 58.0704C41.3092 57.2036 40.8788 56.6618 40.4484 56.3367C40.0179 56.0116 39.6951 55.9033 39.2646 55.9033C38.8342 55.9033 38.8342 55.9033 38.619 56.12C38.4038 56.3367 38.4038 56.4451 38.4038 56.6618C38.4038 56.8785 38.4038 56.9868 38.619 57.0952C38.8342 57.3119 39.3723 57.7453 40.2331 58.3955C41.094 59.0456 41.7397 59.479 41.9549 59.9125C42.2777 60.3459 42.3853 60.7793 42.3853 61.3211C42.3853 61.8629 42.2777 62.2963 42.0625 62.7298C41.8473 63.1632 41.5245 63.4883 41.094 63.8133C40.6636 64.03 40.2331 64.1384 39.6951 64.1384C39.157 64.1384 38.7266 64.03 38.0809 63.705C37.8657 63.705 37.7581 63.705 37.7581 63.705C37.5429 63.705 37.4353 63.8133 37.2201 64.1384H36.8972V61.1044C36.7896 61.1044 37.1124 61.1044 37.1124 61.1044C37.4353 61.8629 37.7581 62.513 38.1885 62.9465C38.619 63.3799 39.157 63.5966 39.5875 63.5966C40.0179 63.5966 40.1255 63.5966 40.3407 63.2715C40.556 63.0548 40.6636 62.8381 40.6636 62.6214C40.6636 62.4047 40.6636 62.0796 40.3407 61.8629C40.1255 61.6462 39.8027 61.3211 39.157 60.8877C38.1885 60.2375 37.6505 59.6958 37.3277 59.3707C36.8972 58.8289 36.682 58.2871 36.682 57.7453C36.682 57.2035 36.8972 56.4451 37.3277 55.9033C37.7581 55.3615 38.4038 55.1448 39.2646 55.1448C40.1255 55.1448 40.1255 55.2531 40.556 55.4698C40.7712 55.4698 40.8788 55.5782 40.9864 55.5782C41.094 55.5782 41.2016 55.5782 41.2016 55.5782C41.2016 55.5782 41.4169 55.3615 41.5245 55.1448H41.8473Z" fill="#595757"/>
<path d="M49.1648 55.1448V58.0704C49.2724 58.0704 48.9496 58.0704 48.9496 58.0704C48.6268 57.2036 48.1963 56.6618 47.7659 56.3367C47.3354 56.0116 47.0126 55.9033 46.5822 55.9033C46.1517 55.9033 46.1517 55.9033 45.9365 56.12C45.7213 56.3367 45.7213 56.4451 45.7213 56.6618C45.7213 56.8785 45.7213 56.9868 45.9365 57.0952C46.1517 57.3119 46.6898 57.7453 47.5507 58.3955C48.4115 59.0456 49.0572 59.479 49.2724 59.9125C49.5952 60.3459 49.7029 60.7793 49.7029 61.3211C49.7029 61.8629 49.5952 62.2963 49.38 62.7298C49.1648 63.1632 48.842 63.4883 48.4115 63.8133C47.9811 64.03 47.5507 64.1384 47.0126 64.1384C46.4746 64.1384 46.0441 64.03 45.3984 63.705C45.1832 63.705 45.0756 63.705 45.0756 63.705C44.8604 63.705 44.7528 63.8133 44.5376 64.1384H44.2147V61.1044C44.1071 61.1044 44.43 61.1044 44.43 61.1044C44.7528 61.8629 45.0756 62.513 45.5061 62.9465C45.9365 63.3799 46.4746 63.5966 46.905 63.5966C47.3354 63.5966 47.443 63.5966 47.6583 63.2715C47.8735 63.0548 47.9811 62.8381 47.9811 62.6214C47.9811 62.4047 47.9811 62.0796 47.6583 61.8629C47.443 61.6462 47.1202 61.3211 46.4746 60.8877C45.5061 60.2375 44.968 59.6958 44.6452 59.3707C44.2147 58.8289 43.9995 58.2871 43.9995 57.7453C43.9995 57.2035 44.2147 56.4451 44.6452 55.9033C45.0756 55.3615 45.7213 55.1448 46.5822 55.1448C47.443 55.1448 47.443 55.2531 47.8735 55.4698C48.0887 55.4698 48.1963 55.5782 48.3039 55.5782C48.4115 55.5782 48.5191 55.5782 48.5191 55.5782C48.5191 55.5782 48.7344 55.3615 48.842 55.1448H49.1648Z" fill="#595757"/>
<path d="M58.2041 59.3707H53.5768C53.5768 60.4542 53.8997 61.4294 54.4377 62.0796C54.8682 62.6214 55.4062 62.8381 55.9443 62.8381C56.4823 62.8381 56.5899 62.8381 56.9128 62.513C57.2356 62.2963 57.5584 61.9712 57.8813 61.4294L58.2041 61.6462C57.7736 62.6214 57.2356 63.2715 56.6975 63.7049C56.1595 64.1384 55.5138 64.2467 54.7606 64.2467C53.4692 64.2467 52.5007 63.7049 51.8551 62.7297C51.317 61.9712 51.1018 60.996 51.1018 59.8041C51.1018 58.6122 51.5323 57.2035 52.2855 56.3367C53.0388 55.4698 54.0073 55.0364 54.9758 55.0364C55.9443 55.0364 56.5899 55.3614 57.2356 56.1199C57.8813 56.8784 58.2041 57.8537 58.3117 59.2623L58.2041 59.3707ZM55.9443 58.7205C55.9443 57.7453 55.9443 57.0952 55.8367 56.6617C55.8367 56.3367 55.5138 56.0116 55.2986 55.7949C55.191 55.6865 54.9758 55.5782 54.7606 55.5782C54.4377 55.5782 54.2225 55.6865 54.0073 56.0116C53.6845 56.5534 53.4692 57.3119 53.4692 58.2871V58.6122H55.9443V58.7205Z" fill="#595757"/>
<path d="M62.7237 52.2192V55.3615H64.7683V56.2284H62.7237V61.5379C62.7237 62.0797 62.7237 62.4047 62.7237 62.5131C62.7237 62.6215 62.8313 62.7298 62.9389 62.8382C63.0465 62.8382 63.1541 62.9465 63.2617 62.9465C63.6922 62.9465 64.015 62.6215 64.3378 62.0797L64.6607 62.2964C64.1226 63.4883 63.3694 64.0301 62.2932 64.0301C61.2171 64.0301 61.3248 63.9217 60.8943 63.5967C60.5715 63.2716 60.2487 62.9465 60.141 62.6215C60.141 62.4047 60.141 61.863 60.141 60.8877V56.2284H59.0649V55.9033C59.8182 55.3615 60.4639 54.8198 61.0019 54.1696C61.54 53.5195 61.9704 52.8693 62.4009 52.1108H62.7237V52.2192Z" fill="#595757"/>
<path d="M78.4348 59.6958L81.7707 51.4607H86.8284V51.7858H86.398C86.0751 51.7858 85.7523 51.7858 85.5371 52.0025C85.4295 52.0025 85.2143 52.2192 85.2143 52.4359C85.2143 52.5443 85.2143 52.9777 85.2143 53.6278V61.863C85.2143 62.5131 85.2143 62.9465 85.2143 63.0549C85.2143 63.1632 85.4295 63.3799 85.6447 63.4883C85.8599 63.5967 86.0751 63.705 86.5056 63.705H86.936V64.0301H80.4794V63.705H80.9098C81.2327 63.705 81.5555 63.705 81.7707 63.4883C81.8783 63.4883 82.0936 63.2716 82.0936 63.0549C82.0936 62.9465 82.0936 62.5131 82.0936 61.863V52.6526L77.3587 64.0301H77.1435L72.301 52.761V61.5379C72.301 62.188 72.301 62.5131 72.301 62.6214C72.301 62.9465 72.5162 63.1632 72.8391 63.38C73.0543 63.5967 73.4847 63.705 74.1304 63.705V64.0301H69.9336V63.705H70.0412C70.364 63.705 70.5793 63.705 70.7945 63.5967C71.0097 63.5967 71.2249 63.3799 71.3325 63.1632C71.4401 63.0549 71.5478 62.7298 71.6554 62.5131C71.6554 62.5131 71.6554 62.0797 71.6554 61.5379V53.6278C71.6554 52.9777 71.6554 52.6526 71.6554 52.4359C71.6554 52.3275 71.4401 52.1108 71.2249 52.0025C71.0097 51.8941 70.7945 51.7858 70.364 51.7858H69.9336V51.4607H74.9913L78.4348 59.6958Z" fill="#595757"/>
<path d="M95.9753 55.3615V62.0796C95.9753 62.7297 95.9753 63.1631 96.1905 63.2715C96.2982 63.3799 96.5134 63.4882 96.9438 63.5966V63.9216H93.5003V62.7297C93.0698 63.2715 92.6394 63.5966 92.3166 63.8133C91.8861 64.03 91.4557 64.1384 90.9176 64.1384C90.3796 64.1384 90.0568 64.03 89.6263 63.7049C89.1959 63.3799 88.9807 63.0548 88.8731 62.6214C88.7654 62.1879 88.6578 61.5378 88.6578 60.5626V57.2035C88.6578 56.5534 88.6578 56.1199 88.4426 56.0116C88.335 55.9032 88.1198 55.7949 87.6893 55.6865V55.3615H91.1329V61.2127C91.1329 61.8629 91.1329 62.1879 91.1329 62.4046C91.1329 62.6214 91.2405 62.7297 91.4557 62.8381C91.5633 62.8381 91.7785 62.9464 91.8861 62.9464C91.9937 62.9464 92.3166 62.9464 92.4242 62.7297C92.6394 62.6214 92.9622 62.2963 93.2851 61.7545V57.2035C93.2851 56.5534 93.2851 56.1199 93.0698 56.0116C92.9622 55.9032 92.747 55.7949 92.3166 55.6865V55.3615H95.7601H95.9753Z" fill="#595757"/>
<path d="M103.508 55.1448V58.0704C103.616 58.0704 103.293 58.0704 103.293 58.0704C102.97 57.2036 102.54 56.6618 102.109 56.3367C101.679 56.0116 101.356 55.9033 100.925 55.9033C100.495 55.9033 100.495 55.9033 100.28 56.12C100.065 56.3367 100.065 56.4451 100.065 56.6618C100.065 56.8785 100.065 56.9868 100.28 57.0952C100.495 57.3119 101.033 57.7453 101.894 58.3955C102.755 59.0456 103.4 59.479 103.616 59.9125C103.939 60.3459 104.046 60.7793 104.046 61.3211C104.046 61.8629 103.939 62.2963 103.723 62.7298C103.508 63.1632 103.185 63.4883 102.755 63.8133C102.324 64.03 101.894 64.1384 101.356 64.1384C100.818 64.1384 100.387 64.03 99.7417 63.705C99.5265 63.705 99.4189 63.705 99.4189 63.705C99.2037 63.705 99.096 63.8133 98.8808 64.1384H98.558V61.1044C98.4504 61.1044 98.7732 61.1044 98.7732 61.1044C99.096 61.8629 99.4189 62.513 99.8493 62.9465C100.28 63.3799 100.818 63.5966 101.248 63.5966C101.679 63.5966 101.786 63.5966 102.002 63.2715C102.217 63.0548 102.324 62.8381 102.324 62.6214C102.324 62.4047 102.324 62.0796 102.002 61.8629C101.786 61.6462 101.463 61.3211 100.818 60.8877C99.8493 60.2375 99.3113 59.6958 98.9884 59.3707C98.558 58.8289 98.3428 58.2871 98.3428 57.7453C98.3428 57.2035 98.558 56.4451 98.9884 55.9033C99.4189 55.3615 100.065 55.1448 100.925 55.1448C101.786 55.1448 101.786 55.2531 102.217 55.4698C102.432 55.4698 102.54 55.5782 102.647 55.5782C102.755 55.5782 102.862 55.5782 102.862 55.5782C102.862 55.5782 103.078 55.3615 103.185 55.1448H103.508Z" fill="#595757"/>
<path d="M112.655 59.3707H108.028C108.028 60.4542 108.35 61.4294 108.889 62.0796C109.319 62.6214 109.857 62.8381 110.395 62.8381C110.933 62.8381 111.041 62.8381 111.364 62.513C111.686 62.2963 112.009 61.9712 112.332 61.4294L112.655 61.6462C112.224 62.6214 111.686 63.2715 111.148 63.7049C110.61 64.1384 109.965 64.2467 109.211 64.2467C107.92 64.2467 106.952 63.7049 106.306 62.7297C105.768 61.9712 105.553 60.996 105.553 59.8041C105.553 58.6122 105.983 57.2035 106.736 56.3367C107.49 55.4698 108.458 55.0364 109.427 55.0364C110.395 55.0364 111.041 55.3614 111.686 56.1199C112.332 56.8784 112.655 57.8537 112.762 59.2623L112.655 59.3707ZM110.395 58.7205C110.395 57.7453 110.395 57.0952 110.287 56.6617C110.287 56.3367 109.965 56.0116 109.749 55.7949C109.642 55.6865 109.427 55.5782 109.211 55.5782C108.889 55.5782 108.673 55.6865 108.458 56.0116C108.135 56.5534 107.92 57.3119 107.92 58.2871V58.6122H110.395V58.7205Z" fill="#595757"/>
<path d="M121.909 55.3615V62.0796C121.909 62.7297 121.909 63.1631 122.124 63.2715C122.232 63.3799 122.447 63.4882 122.878 63.5966V63.9216H119.434V62.7297C119.004 63.2715 118.573 63.5966 118.251 63.8133C117.82 64.03 117.39 64.1384 116.852 64.1384C116.314 64.1384 115.991 64.03 115.56 63.7049C115.237 63.3799 114.915 63.0548 114.807 62.6214C114.699 62.1879 114.592 61.5378 114.592 60.5626V57.2035C114.592 56.5534 114.592 56.1199 114.377 56.0116C114.269 55.9032 114.054 55.7949 113.623 55.6865V55.3615H117.067V61.2127C117.067 61.8629 117.067 62.1879 117.067 62.4046C117.067 62.6214 117.174 62.7297 117.39 62.8381C117.497 62.8381 117.712 62.9464 117.82 62.9464C117.928 62.9464 118.251 62.9464 118.358 62.7297C118.573 62.6214 118.896 62.2963 119.219 61.7545V57.2035C119.219 56.5534 119.219 56.1199 119.004 56.0116C118.896 55.9032 118.681 55.7949 118.251 55.6865V55.3615H121.694H121.909Z" fill="#595757"/>
<path d="M127.613 55.3615V56.445C128.043 55.9032 128.474 55.5782 128.904 55.3615C129.334 55.1447 129.765 55.0364 130.195 55.0364C130.626 55.0364 131.164 55.1447 131.594 55.4698C131.917 55.6865 132.24 56.1199 132.455 56.6617C132.993 56.1199 133.424 55.6865 133.854 55.4698C134.284 55.2531 134.715 55.1447 135.253 55.1447C135.791 55.1447 136.329 55.2531 136.652 55.5782C136.975 55.9032 137.298 56.2283 137.405 56.6617C137.513 57.0952 137.62 57.7453 137.62 58.6122V62.0796C137.62 62.7297 137.62 63.1632 137.836 63.2715C137.943 63.3799 138.158 63.4882 138.589 63.5966V63.9216H134.177V63.5966C134.5 63.5966 134.823 63.3799 134.93 63.1631C135.038 62.9464 135.145 62.6214 135.145 62.0796V58.3954C135.145 57.6369 135.145 57.0952 135.145 56.9868C135.145 56.7701 135.038 56.6617 134.823 56.5534C134.715 56.5534 134.5 56.445 134.392 56.445C134.177 56.445 133.854 56.445 133.639 56.7701C133.424 56.9868 133.101 57.2035 132.778 57.6369V62.1879C132.778 62.8381 132.778 63.1631 132.886 63.3799C132.993 63.5966 133.316 63.7049 133.639 63.7049V64.03H129.227V63.7049C129.442 63.7049 129.657 63.7049 129.765 63.4882C129.872 63.4882 129.98 63.2715 130.088 63.0548C130.088 62.9464 130.088 62.6214 130.088 62.0796V58.3954C130.088 57.6369 130.088 57.0952 130.088 56.9868C130.088 56.7701 129.872 56.6617 129.765 56.5534C129.657 56.445 129.442 56.3367 129.334 56.3367C129.119 56.3367 128.904 56.3367 128.689 56.5534C128.366 56.7701 128.151 57.0952 127.828 57.5286V62.0796C127.828 62.7297 127.828 63.0548 128.043 63.2715C128.151 63.4882 128.366 63.5966 128.796 63.5966V63.9216H124.384V63.5966C124.707 63.5966 125.03 63.4882 125.138 63.2715C125.138 63.1632 125.245 62.7297 125.245 62.0796V57.2035C125.245 56.5534 125.245 56.1199 125.03 56.0116C124.922 55.9032 124.707 55.7949 124.277 55.6865V55.3615H127.72H127.613Z" fill="#595757"/>
<path d="M3.50745 10.854L3.84964 7.40833H5.47507L5.98836 8.61432H10.8646C13.4311 8.61432 14.5432 10.251 14.5432 12.4907V20.502C14.0299 20.8465 12.2334 20.7604 11.4635 20.502V12.8353C11.4635 11.7154 11.1213 10.9402 9.58141 10.9402C8.04153 10.9402 7.35714 12.06 7.35714 13.9551C7.35714 15.8503 9.23921 17.2285 8.04153 20.6742H3.0797C2.73751 19.9851 2.82306 18.8653 3.0797 18.2623H5.56062C5.90281 17.3147 4.44848 16.281 4.44848 14.1274C4.44848 11.9739 5.04732 11.7154 5.73171 11.1986V11.0263C4.19184 11.0263 3.50745 10.854 3.50745 10.854Z" fill="#595757"/>
<path d="M19.1629 11.1124H18.5641C17.7941 11.1124 16.682 10.7679 16.682 10.7679L17.0242 7.40833H18.6496L19.2485 8.61432H24.2103C26.8623 8.61432 28.5733 10.1649 28.5733 13.1799C28.5733 18.9514 26.4346 21.105 23.3548 21.105C20.2751 21.105 18.1363 18.3484 18.0508 14.5581C18.0508 13.0937 18.6496 11.6293 19.334 11.1986L19.1629 11.1124ZM25.408 14.2997C25.4935 12.4907 24.9802 11.0263 23.2693 11.0263C21.5583 11.0263 21.045 12.5769 21.1305 14.2997C21.1305 17.0563 22.0716 18.693 23.2693 18.693C24.4669 18.693 25.2369 17.2285 25.408 14.2997Z" fill="#595757"/>
<path d="M36.1016 12.7491C36.1016 14.3858 37.0426 15.764 37.1282 17.4008C37.1282 18.5206 36.786 19.985 36.5293 20.7603H30.3698C30.0276 20.0712 30.0276 18.9513 30.3698 18.176H33.8773C33.9629 17.8315 34.0484 17.3146 34.0484 16.97C33.8773 15.1611 33.0218 15.0749 33.0218 13.0936V11.8876C33.0218 11.4569 32.8507 11.1985 32.423 11.1985C31.653 11.1985 30.8831 11.0262 30.8831 11.0262L31.2253 7.49438H32.8507L33.364 8.70038H34.4761C35.7594 8.70038 36.1016 9.30337 36.1016 10.4232V12.7491Z" fill="#595757"/>
<path d="M39.4379 20.3297C39.2668 19.899 39.609 18.2623 40.0368 17.7454C40.379 17.9177 41.4911 18.1761 42.5177 18.1761C44.9131 18.1761 46.0252 17.2285 46.0252 14.5581C46.0252 11.8877 45.3408 11.1124 43.3732 11.1124H41.6622C40.379 11.1124 39.5235 10.7679 39.5235 10.7679L39.9512 7.40833H41.4911L42.09 8.61432H44.3998C48.0784 8.61432 49.1049 10.3372 49.1049 14.6443C49.1049 18.9514 46.5385 20.8465 42.8599 20.8465C39.1813 20.8465 40.2079 20.5881 39.609 20.3297H39.4379Z" fill="#595757"/>
<path d="M62.1083 8.61432C62.9638 8.61432 63.2205 8.95889 63.2205 9.64803V11.1124H62.5361V17.5731C62.5361 18.8653 62.4505 20.1574 62.1939 20.7604C61.595 20.9327 59.5419 20.7604 59.1141 20.4158C59.1141 20.4158 59.3708 18.9514 59.3708 16.9701V11.1124H53.5535C52.0991 11.1124 51.2437 10.7679 51.2437 10.7679L51.5858 7.40833H53.2113L53.7246 8.61432H62.1083ZM52.0136 13.6967C52.6124 13.4383 54.5801 13.4383 55.1789 13.6967V20.5881C54.4945 20.7604 52.7835 20.8465 52.0136 20.5881V13.6967Z" fill="#595757"/>
<path d="M74.5984 8.61432C75.7961 8.61432 76.566 9.3896 76.566 10.5956C76.566 11.8016 76.3949 11.8877 75.8816 12.663C75.4539 13.3521 75.1973 14.0413 75.1973 15.1611V25.0675C74.684 25.2398 72.7163 25.3259 72.1175 25.0675V15.2473C72.1175 13.7829 72.3742 12.9214 73.0585 12.2323C73.4863 11.8016 73.4863 11.1124 72.8019 11.1124H72.4597C71.6042 11.1124 71.0054 10.7679 71.0054 10.7679L71.3476 7.40833H72.973L73.4863 8.61432H74.684H74.5984Z" fill="#595757"/>
<path d="M81.4423 8.61432C82.9822 8.61432 83.4955 9.21731 83.4955 10.7679V20.5881C82.8111 20.8465 81.0146 20.8465 80.3302 20.5881V11.8016C80.3302 11.2847 80.2446 11.1124 79.7313 11.1124H79.3036C78.5337 11.1124 77.9348 10.7679 77.9348 10.7679L78.277 7.40833H79.9024L80.4157 8.61432H81.4423Z" fill="#595757"/>
<path d="M94.1036 14.1274C94.1036 13.266 94.7025 11.5431 95.729 10.9401C94.788 10.9401 93.1626 10.5094 93.1626 10.5094L93.5048 7.32214H95.0447L95.6435 8.52814H98.3811C98.9799 8.52814 99.2365 8.95885 99.2365 9.56184V10.854C97.6111 11.0263 96.4134 13.6105 96.0712 14.8165C95.9001 15.4195 95.9001 15.8502 96.3279 16.3671C97.0978 17.3147 98.5521 19.1236 98.5521 19.1236V21.0188H96.8412L90.3395 13.3521C89.3129 13.6105 89.3984 14.7304 89.9117 15.7641C90.9383 17.7454 91.2805 18.8652 90.5961 20.5881H85.7198C85.4632 19.9851 85.5487 18.8652 85.7198 18.2622H87.8586C88.2008 17.0562 86.4042 16.5394 86.6609 14.1274C86.7464 13.0075 87.6019 11.9738 88.9707 11.8015L86.4042 9.21727V7.40829H88.2008C88.2008 7.40829 92.4782 12.2323 92.9915 12.8353C93.1626 13.0937 93.7614 13.869 93.847 14.1274H94.1036Z" fill="#595757"/>
<path d="M104.113 8.61428C105.824 8.61428 106.936 9.4757 106.936 11.3708C106.936 13.266 105.824 14.7304 104.284 15.7641C103.771 15.6779 102.83 14.9888 102.573 13.9551C103.428 13.3521 103.856 12.7491 103.856 11.8877C103.856 11.0263 103.599 11.0263 102.658 11.0263H102.145C101.204 11.0263 100.349 10.7678 100.349 10.7678L100.691 7.32214H102.316L102.83 8.52814H104.027L104.113 8.61428Z" fill="#595757"/>
<path d="M113.694 11.2846C113.865 11.3708 114.036 11.9738 114.036 12.5768V13.2659C114.036 15.1611 114.977 15.1611 114.977 17.0562V20.6742C114.464 21.0187 112.497 20.9326 111.898 20.6742V17.4869C111.898 15.764 110.957 15.6779 110.957 13.5243V12.4045C110.957 11.6292 110.786 11.1985 110.358 11.1985H109.845C108.904 11.1985 108.219 10.8539 108.219 10.8539L108.561 7.49438H110.101L110.614 8.70038H115.32C116.175 8.70038 116.261 9.04495 116.261 9.64794V11.1985H113.609L113.694 11.2846Z" fill="#595757"/>
<path d="M121.222 8.61432C122.762 8.61432 123.276 9.21731 123.276 10.7679V20.5881C122.591 20.8465 120.795 20.8465 120.11 20.5881V11.8016C120.11 11.2847 120.025 11.1124 119.511 11.1124H119.084C118.314 11.1124 117.715 10.7679 117.715 10.7679L118.057 7.40833H119.683L120.196 8.61432H121.222Z" fill="#595757"/>
<path d="M130.12 10.1648C130.889 9.21727 131.916 8.35585 133.37 8.35585C136.878 8.35585 138.161 11.6293 138.161 15.2472C138.161 17.4008 137.733 19.3821 137.049 20.7603H131.831C131.574 20.2435 131.574 18.8652 131.831 18.3484H134.825C135.081 17.6592 135.424 16.6255 135.424 15.1611C135.424 12.4907 134.91 10.6817 133.285 10.6817C130.034 10.6817 129.178 16.5394 129.521 20.5881C129.007 20.8465 127.211 20.8465 126.612 20.5881C126.526 17.7454 126.783 14.9888 128.323 12.2323C128.665 11.7154 128.494 11.0263 127.639 11.0263H127.125C126.099 11.0263 125.585 10.6817 125.585 10.6817L125.928 7.32214H127.468L127.981 8.52814H128.751C129.692 8.52814 130.12 9.21727 130.034 9.99256H130.12V10.1648Z" fill="#595757"/>
<path d="M18.393 42.2958H18.2219C17.0243 42.2958 16.1688 42.0374 15.6555 41.2621C13.6023 42.2097 11.2925 42.8127 9.06822 42.8127C6.84396 42.8127 5.73182 42.382 4.79079 41.779C3.67865 41.0898 2.99426 39.97 2.99426 38.4194C2.99426 36.8689 3.25091 36.2659 3.7642 35.146L4.53414 35.4044C4.36304 35.9213 4.27749 36.4381 4.27749 36.8689C4.27749 38.764 5.81737 40.2284 9.66706 40.2284C13.5168 40.2284 13.5168 39.8838 15.0566 39.2808L15.6555 37.6441C15.9977 37.3857 16.3399 37.1273 16.5965 36.955H16.6821C16.511 37.6441 16.4254 38.0749 16.4254 38.4194C16.4254 39.2808 17.2809 39.7116 18.3075 39.7116H18.4786V42.1235L18.393 42.2958ZM8.29828 31.528C8.89713 32.0449 9.49597 32.5617 10.0093 33.0786C9.66706 33.5955 9.23932 34.1123 8.81158 34.6292C8.21274 34.0262 7.61389 33.5093 7.01505 33.0786L8.29828 31.528ZM11.2069 31.4419C11.8058 31.9587 12.4046 32.4756 12.9179 32.9925C12.5757 33.5093 12.148 34.0262 11.7202 34.543C11.1214 33.94 10.5226 33.4232 9.92371 32.9925L11.2069 31.4419Z" fill="#595757"/>
<path d="M23.2694 39.7977V42.2097H18.3931C17.7942 42.2097 17.5376 41.6067 17.5376 41.0037C17.5376 40.4007 17.7942 39.7977 18.3931 39.7977H23.2694Z" fill="#595757"/>
<path d="M28.06 39.7977V42.2097H23.1837C22.5849 42.2097 22.3282 41.6067 22.3282 41.0037C22.3282 40.4007 22.5849 39.7977 23.1837 39.7977H28.06Z" fill="#595757"/>
<path d="M32.9364 39.7977V42.2097H28.0601C27.4612 42.2097 27.2046 41.6067 27.2046 41.0037C27.2046 40.4007 27.4612 39.7977 28.0601 39.7977H32.9364Z" fill="#595757"/>
<path d="M45.4264 42.2959H45.2553C43.8866 42.2959 42.9455 41.9513 42.5178 41.176C41.8334 41.9513 41.149 42.2959 40.4646 42.2959C39.7802 42.2959 39.3525 41.9513 39.0958 41.2622C38.4114 41.9513 37.8981 42.2959 37.0427 42.2959C36.1872 42.2959 35.9305 42.0374 35.7594 41.3483C34.9895 41.9513 34.134 42.2959 33.193 42.2959H33.0219C32.423 42.2959 32.1664 41.6929 32.1664 41.0899C32.1664 40.4869 32.423 39.8839 33.0219 39.8839H33.193C34.2196 39.8839 34.9039 39.7116 35.3317 39.367C35.6739 39.1086 35.9305 38.5917 36.3583 38.0749C36.7005 37.9026 37.0427 37.7303 37.3849 37.558H37.556C37.1282 38.3333 36.786 38.9363 36.786 39.2809C36.786 39.6255 37.0427 39.8839 37.3849 39.8839C37.7271 39.8839 38.2403 39.6255 38.5825 39.367C39.0958 38.8502 39.1814 38.3333 39.438 37.7303C39.7802 37.558 40.0369 37.3858 40.4646 37.2135H40.5502C40.208 38.0749 39.9513 38.6779 39.9513 39.0225C39.9513 39.5393 40.208 39.7977 40.5502 39.7977C41.149 39.7977 41.4912 39.5393 41.7478 39.1947C42.09 38.764 42.1756 38.0749 42.4322 37.4719C42.7744 37.2996 43.0311 37.0412 43.3733 36.8689C43.2022 37.6442 43.0311 38.161 43.0311 38.5056C43.0311 39.367 43.6299 39.7977 45.0842 39.7977H45.2553V42.2097L45.4264 42.2959Z" fill="#595757"/>
<path d="M51.1582 42.2958H50.9871C49.8749 42.2958 48.8484 42.0374 48.164 40.9175C47.4796 41.779 46.7096 42.2958 45.5975 42.2958H45.4264C44.8276 42.2958 44.5709 41.6928 44.5709 41.0898C44.5709 40.4868 44.8276 39.8838 45.4264 39.8838H45.5975C46.453 39.8838 46.8807 39.7115 47.2229 39.4531C47.9073 39.0224 47.9929 38.2471 48.2495 37.6441C48.5062 37.4718 48.8484 37.2134 49.1906 37.0411H49.2761C49.105 37.6441 49.0195 37.9887 49.0195 38.2471C49.0195 38.8501 49.1906 39.1947 49.6183 39.5393C49.9605 39.7977 50.3882 39.8838 50.9015 39.8838H51.0726V42.2958H51.1582ZM46.7096 44.5355C47.3085 45.0524 47.7362 45.5692 48.0784 46.0861C47.7362 46.5168 47.394 46.9475 46.8807 47.3782C46.453 46.8614 45.9397 46.4307 45.4264 45.9138L46.6241 44.6217L46.7096 44.5355ZM49.2761 44.4494C49.8749 44.9662 50.3027 45.4831 50.6449 45.9999C50.3027 46.4307 49.9605 46.8614 49.4472 47.2921C49.0195 46.7752 48.5062 46.3445 47.9929 45.8277L49.1906 44.5355L49.2761 44.4494Z" fill="#595757"/>
<path d="M56.8044 42.2959H56.6333C55.5212 42.2959 54.4946 42.0375 53.8102 40.9176C53.1258 41.779 52.3559 42.2959 51.2437 42.2959H51.0727C50.4738 42.2959 50.2172 41.6929 50.2172 41.0899C50.2172 40.4869 50.4738 39.8839 51.0727 39.8839H51.2437C52.0992 39.8839 52.527 39.7116 52.8692 39.4532C53.5536 39.0225 53.6391 38.2472 53.8958 37.6442C54.1524 37.4719 54.4946 37.2135 54.8368 37.0412H54.9223C54.7512 37.6442 54.6657 37.9888 54.6657 38.2472C54.6657 38.8502 54.8368 39.1948 55.2645 39.5393C55.6067 39.7978 56.0345 39.8839 56.5478 39.8839H56.7189V42.2959H56.8044ZM53.468 32.9064C54.1524 33.3371 54.6657 33.8539 55.179 34.3708C54.9223 34.9738 54.5801 35.4906 54.0669 35.9214C53.5536 35.4906 52.9547 35.0599 52.2703 34.5431L53.3825 32.9925L53.468 32.9064Z" fill="#595757"/>
<path d="M59.7987 34.9738C63.0495 37.4719 63.905 39.7977 66.0437 39.7977H66.2148V42.2097H66.0437C63.7339 42.2097 63.5628 41.3483 61.6807 39.1086C61.5096 40.1423 61.1674 40.8314 60.5686 41.4344C59.9698 41.9513 58.7721 42.2097 56.9756 42.2097H56.8045C56.2056 42.2097 55.949 41.6067 55.949 41.0037C55.949 40.4007 56.2056 39.7977 56.8045 39.7977H56.9756C58.601 39.7977 60.0553 39.7977 60.3975 39.1086C60.312 38.2472 59.1143 36.7828 56.9756 34.8015C56.89 34.4569 56.8045 34.0262 56.8045 33.5955C56.8045 32.9064 56.9756 32.3895 57.3178 31.9588C57.4889 31.7865 57.7455 31.6142 58.0021 31.4419C59.7131 30.5805 62.194 29.7191 64.9316 28.8577H65.0171C64.6749 29.7191 64.3328 30.4082 63.9906 30.9251C61.5952 31.6142 59.4565 32.3895 58.0021 33.0786C58.6865 33.3371 59.3709 33.5955 60.2264 33.8539L59.7131 34.8015L59.7987 34.9738Z" fill="#595757"/>
<path d="M69.2946 29.7191C69.2946 30.4944 69.7223 31.5281 70.6634 32.9925L69.5512 33.8539C69.5512 34.8015 69.5512 35.9213 69.5512 37.1273C69.5512 38.3333 69.3801 39.0224 69.1235 39.7977C68.9524 40.2284 68.7813 40.7453 68.5247 41.0899C68.0114 41.779 67.4125 42.2097 66.3004 42.2097H66.1293C65.5304 42.2097 65.2738 41.6067 65.2738 41.0037C65.2738 40.4007 65.5304 39.7977 66.1293 39.7977H66.3004C67.0703 39.7977 67.6692 39.6254 68.0114 39.2809C68.1825 39.1086 68.1825 38.764 68.1825 38.0749C68.1825 35.0599 67.7547 32.3033 67.7547 31.7003C67.7547 31.0974 67.8403 30.8389 68.0969 30.5805C68.3536 30.3221 68.6102 29.9775 69.0379 29.6329H69.209L69.2946 29.7191Z" fill="#595757"/>
<path d="M72.3743 42.382C72.4599 41.5206 72.5454 40.573 72.5454 39.4532C72.5454 36.7827 72.4599 34.1985 72.1177 31.4419C72.631 30.8389 73.0587 30.3221 73.572 29.8914H73.7431C73.9997 32.6479 73.9997 35.146 73.9997 37.4719C73.9997 39.7977 73.9142 40.6591 73.6575 41.0899C73.4009 41.5206 73.0587 42.0374 72.631 42.5543L72.3743 42.382Z" fill="#595757"/>
<path d="M99.0655 42.2958C97.3545 42.2958 96.3279 42.0374 95.3013 41.6067C92.9915 42.382 90.6817 42.8988 88.4574 42.8988C84.6077 42.8988 82.469 41.2621 82.469 38.4194C82.469 35.5767 82.7256 36.2659 83.2389 35.146L84.0089 35.4906C83.8378 36.0074 83.6667 36.5243 83.6667 36.955C83.6667 39.0224 85.5487 40.3145 88.9707 40.4007C90.2539 40.4007 91.5372 40.2284 92.9059 39.97C92.7348 39.4531 92.6493 38.8501 92.6493 38.161C92.6493 36.7827 93.2481 35.749 94.1036 34.9737C94.7025 34.3707 95.3013 34.0262 95.9001 34.0262C96.499 34.0262 96.7556 34.3707 97.0978 34.8014C97.6111 35.5767 97.7822 36.4381 97.7822 37.2996C97.7822 38.161 97.5256 39.1947 97.1834 39.7977C97.7822 39.97 98.2955 39.97 98.8944 39.97H99.0655V42.382H98.8944L99.0655 42.2958ZM95.2158 39.2808C96.3279 38.9363 96.9267 38.3333 96.9267 37.9026C96.9267 37.2996 96.3279 36.1797 95.4724 36.1797C94.6169 36.1797 93.847 36.955 93.5048 37.8164C93.6759 38.5056 94.1892 38.9363 95.1302 39.2808H95.2158ZM95.0447 29.8052C95.729 30.2359 96.3279 30.7527 96.8412 31.2696C96.5845 31.8726 96.1568 32.3894 95.729 32.8202C95.2158 32.3894 94.6169 31.8726 93.9325 31.4419L95.0447 29.8052Z" fill="#595757"/>
<path d="M104.113 39.7977V42.2097H99.2366C98.6377 42.2097 98.3811 41.6067 98.3811 41.0037C98.3811 40.4007 98.6377 39.7977 99.2366 39.7977H104.113Z" fill="#595757"/>
<path d="M108.989 39.7977V42.2097H104.113C103.514 42.2097 103.257 41.6067 103.257 41.0037C103.257 40.4007 103.514 39.7977 104.113 39.7977H108.989Z" fill="#595757"/>
<path d="M113.865 39.7977V42.2097H108.989C108.39 42.2097 108.134 41.6067 108.134 41.0037C108.134 40.4007 108.39 39.7977 108.989 39.7977H113.865Z" fill="#595757"/>
<path d="M120.196 38.161C118.827 37.7303 117.801 37.4719 117.116 37.4719C116.432 37.4719 116.346 37.4719 116.09 37.7303L115.491 39.0224H115.234L114.464 37.4719C114.721 35.9213 115.833 35.2322 117.116 35.2322C118.4 35.2322 119.084 35.5767 120.453 36.0936C121.65 36.5243 122.42 36.6966 123.447 36.6966H124.388C124.131 37.2996 123.789 37.9026 123.361 38.5056C122.506 38.5056 121.907 38.6779 121.308 39.2809C119.169 41.2621 117.544 42.2958 113.951 42.2958H113.78C113.181 42.2958 112.924 41.6929 112.924 41.0899C112.924 40.4869 113.181 39.8839 113.78 39.8839H113.951C116.517 39.8839 118.228 39.5393 120.111 38.2472L120.196 38.161ZM122.506 38.764C122.591 39.7116 123.532 39.7977 124.645 39.7977H124.816V42.2097H124.645C123.447 42.2097 122.763 42.0374 122.42 41.6929C121.993 41.2621 121.736 40.7453 121.736 39.97C121.736 39.1947 121.736 39.4531 121.736 39.2809L122.42 38.764H122.506Z" fill="#595757"/>
<path d="M130.376 42.2959C129.264 42.2959 128.238 42.0375 127.553 40.9176C126.869 41.779 126.099 42.2959 124.987 42.2959H124.816C124.217 42.2959 123.96 41.6929 123.96 41.0899C123.96 40.4869 124.217 39.8839 124.816 39.8839H124.987C125.842 39.8839 126.27 39.7116 126.612 39.4532C127.297 39.0225 127.382 38.2472 127.639 37.6442C127.895 37.4719 128.238 37.2135 128.58 37.0412C128.409 37.6442 128.323 37.9888 128.323 38.2472C128.323 38.8502 128.494 39.1948 128.922 39.5393C129.264 39.7978 129.692 39.8839 130.205 39.8839H130.376V42.2959ZM126.099 33.2509C126.698 33.7678 127.126 34.2846 127.468 34.8015C127.126 35.2322 126.783 35.6629 126.27 36.0936C125.842 35.5768 125.329 35.1461 124.816 34.6292L126.013 33.3371L126.099 33.2509ZM128.665 33.1648C129.264 33.6816 129.692 34.1985 130.034 34.7154C129.692 35.1461 129.35 35.5768 128.836 36.0075C128.409 35.4906 127.895 35.0599 127.382 34.5431L128.58 33.2509L128.665 33.1648Z" fill="#595757"/>
<path d="M132.686 40.8315C132.344 41.7791 131.66 42.2959 130.718 42.2959H130.547C129.949 42.2959 129.692 41.6929 129.692 41.0899C129.692 40.4869 129.949 39.8839 130.547 39.8839H130.718C131.061 39.8839 131.488 39.7978 131.745 39.5394C132.686 38.9364 132.515 37.2135 133.627 36.0937C134.14 35.5768 134.654 35.4045 135.253 35.4045C137.306 35.4045 137.99 38.5057 137.99 39.8839C137.99 41.2622 137.562 42.2098 135.937 42.2098C134.312 42.2098 133.798 41.7791 132.686 40.8315ZM136.279 39.7978C136.536 39.7978 136.621 39.7978 136.621 39.7117C136.365 38.3334 135.595 37.472 134.825 37.472C134.055 37.472 133.713 37.9027 133.37 38.5057C134.312 39.3671 135.253 39.7978 136.194 39.7978H136.279Z" fill="#595757"/>
</svg>
