<?xml version="1.0" encoding="UTF-8"?>
<svg id="Layer_2" data-name="Layer 2" xmlns="http://www.w3.org/2000/svg" viewBox="0 0 639.22 381.73">
  <defs>
    <style>
      .cls-1 {
        fill: #fff;
      }

      .cls-2 {
        opacity: .2;
      }
    </style>
  </defs>
  <g id="Layer_1-2" data-name="Layer 1">
    <g>
      <g class="cls-2">
        <path class="cls-1" d="M353.68,72.25c-21.2-35.14-66-32.85-101.63-30.59-37.82,2.4-76.16,7.42-111.87,20.63-32.4,11.98-62.33,30.39-84.96,56.8-21.45,25.03-36.11,55.85-37.6,89.12s11.88,66.59,32.59,93.01c21.84,27.87,51.96,47.25,84.78,59.81,34.53,13.22,71.87,18.38,108.63,20.13s76.92-.64,114.87-6.77c37.25-6.02,73.88-15.88,109.1-29.43,33.87-13.03,67.54-28.77,97.43-49.52,27.84-19.33,52.47-43.66,65.51-75.45,14.36-35,10.49-75.31-8.48-107.77-17.28-29.57-44.83-52.17-74.17-69.1-30.31-17.49-63.82-29.54-98.14-36.18C379.65-6.64,306.15.29,238.65,22.85c-65.69,21.96-129.78,59.6-171.94,115.68-21.27,28.29-35.31,68.23-13.18,100.24,20.97,30.33,59.79,45.93,93.72,56.43,17.58,5.44,35.51,9.62,53.44,13.71,13.94,3.18,19.89-18.27,5.91-21.45-34.07-7.77-68.88-15.78-99.77-32.7-13.02-7.13-26.65-15.82-34.94-28.49-8.25-12.61-9.08-27.02-4.9-41.26,8.89-30.28,34.33-55.17,57.72-75.06,24.44-20.78,52.35-37.45,81.52-50.69,59.04-26.8,125.2-39.8,189.97-36.56,62.47,3.12,128.46,22.75,176.15,64.73,22.84,20.1,41.65,46.69,44.33,77.82,2.78,32.3-10.16,61.87-32.2,84.98-21.57,22.62-48.87,38.8-76.58,52.76-31.53,15.88-64.65,28.43-98.71,37.7-67.03,18.25-139.47,24.72-208.38,14.21-33.54-5.12-66.69-14.87-95.45-33.3-24.69-15.82-45.73-39.07-57.01-66.32-11.12-26.84-11.07-55.97-.46-82.88,10.46-26.51,30.72-49.51,53.9-65.71,27.75-19.39,60.4-30.05,93.43-36.18,17.03-3.16,34.26-5.02,51.53-6.25,17.41-1.23,35.85-3.26,53.2-.6,13.47,2.06,27.23,7.73,34.53,19.82,7.39,12.24,26.63,1.07,19.21-11.23h0Z"/>
      </g>
      <g>
        <path class="cls-1" d="M155.23,101.72h-22.38v-17.11h49.7v17.11h-8.32v36.23h-19v-36.23Z"/>
        <path class="cls-1" d="M220.11,119.6c.86-1.16,1.24-2.57,1.24-4.72v-13.16h-32.29v-17.11h51.32v29.67c0,9.13-2.1,14.88-6.82,18.78-4.97,4.12-10.29,5.32-18.35,4.97l-.09-16.25c1.84-.04,3.64-.43,4.97-2.19ZM189.19,110.13h18.7v42.45h-18.7v-42.45Z"/>
        <path class="cls-1" d="M248.2,84.61h19.12v53.34h-19.12v-53.34Z"/>
        <path class="cls-1" d="M274.52,84.61l2.44-.09c5.19-.17,9.39,1.37,12.22,4.07,1.03.99,1.89,2.06,2.19,2.57.51-.64,2.06-2.4,4.59-4.16,6.47-4.5,16.25-5.19,24.05-1.84,8.4,3.6,13.68,12.52,14.32,23.84.69,11.75-2.96,20.41-10.89,25.68-6.56,4.37-15.22,4.25-19,3.56-.51-.08-.94-.21-1.5-.3l.17-16.72c.39.04.86.13,1.2.21,1.84.43,5.32.56,7.72-1.07,3.43-2.31,4.46-6.26,3.77-10.76-.73-4.72-3.34-7.5-6.78-8.23-2.53-.56-5.23,0-7.12,1.59-2.44,2.06-3.94,5.27-5.27,12.78l-3.9,22.21h-17.75l5.27-28.64.17-1.07c.64-3.22-2.62-6.35-5.53-6.35h-.39v-17.28Z"/>
        <path class="cls-1" d="M370.27,101.81h-29.76v-17.19h40.26c6.22,0,11.23,4.67,11.23,12.18v41.16h-19.04v-32.97c0-2.02-1.11-3.17-2.7-3.17ZM340.81,110.08h18.91v27.87h-18.91v-27.87Z"/>
        <path class="cls-1" d="M446.21,101.51h-23.97l-.09-32.97h19.08l.04,16.08h27.14v12.13c0,.26-.34,1.2-.77,2.36l-14.11,38.85h-20.02l12.69-36.45Z"/>
        <path class="cls-1" d="M473.44,127.66l8.7-2.27-9.18-40.78h19.81l7.38,36.1,1.89-.51c2.92-.77,3.47-1.89,3.47-5.23l-.17-30.36h19.04v31.9c0,9.43-4.07,14.62-14.45,17.54l-36.49,10.25v-16.64Z"/>
        <path class="cls-1" d="M15.13,177.48H0v-14.97h47.13v14.97h-14.68v43.27H15.13v-43.27Z"/>
        <path class="cls-1" d="M87.16,220.75v-20.75h-16.73v20.75h-17.23v-58.24h17.23v22.23h16.73v-22.23h17.23v58.24h-17.23Z"/>
        <path class="cls-1" d="M110.95,162.51h42.74v15.38h-25.84v6.69h22.35v13.86h-22.35v6.93h25.76v15.38h-42.66v-58.24Z"/>
        <path class="cls-1" d="M184.41,206.39h20.51c2.58,0,4.76-.86,4.76-2.91,0-1.8-1.68-2.67-4.51-3.4l-6.11-1.56c-11.36-2.91-16.41-7.92-16.45-17.96-.04-10.95,6.36-18.05,20.43-18.05h20.3v14.36h-19.03c-2.62,0-4.68.62-4.72,2.75-.04,1.8,1.8,2.79,4.72,3.53l5.5,1.39c10.21,2.58,17.6,6.93,17.72,18.33.12,10.87-7.59,17.88-20.43,17.88h-22.68v-14.36Z"/>
        <path class="cls-1" d="M233.46,162.51h25.18c14.81,0,23.46,9.15,23.5,22.52.04,13.62-10.62,21.25-23.62,21.25h-8.16v14.48h-16.9v-58.24ZM256.72,192.37c4.18,0,8.29-2.38,8.29-7.59s-3.73-7.75-7.92-7.75h-6.81v15.34h6.44Z"/>
        <path class="cls-1" d="M286.25,191.47c0-18.17,12.96-30.19,30.76-30.19s30.76,11.61,30.76,30.19-12.92,30.64-30.76,30.6c-17.43.04-30.76-11.16-30.76-30.6ZM317.01,207.09c6.52,0,12.84-5.37,12.8-15.63-.04-9.15-6.23-14.85-12.8-14.85s-12.88,5.21-12.8,14.85c.08,10.25,6.28,15.63,12.8,15.63Z"/>
        <path class="cls-1" d="M365.28,177.48h-15.13v-14.97h47.13v14.97h-14.68v43.27h-17.31v-43.27Z"/>
        <path class="cls-1" d="M402.53,220.75v-58.24h17.23v42.66h24.49v15.59h-41.71Z"/>
        <path class="cls-1" d="M450.39,220.75v-58.24h17.23v58.24h-17.23Z"/>
        <path class="cls-1" d="M524.18,191.05v29.65l-20.22.04c-18.7.04-30.6-9.88-30.6-29.29,0-17.76,12.55-28.96,30.68-28.96h20.14v15.59h-18.58c-8.33,0-14.89,5.37-14.72,13.37.21,8.9,6.44,13.66,14.72,13.66h1.19v-14.07h17.39Z"/>
        <path class="cls-1" d="M565.52,220.75v-20.75h-16.73v20.75h-17.23v-58.24h17.23v22.23h16.73v-22.23h17.23v58.24h-17.23Z"/>
        <path class="cls-1" d="M603.95,177.48h-15.13v-14.97h47.13v14.97h-14.68v43.27h-17.31v-43.27Z"/>
        <path class="cls-1" d="M185.28,244.31l-8.52-8.52,8.52-8.43,8.52,8.43-8.52,8.52ZM200.2,244.31l-8.52-8.52,8.52-8.43,8.52,8.43-8.52,8.52Z"/>
        <path class="cls-1" d="M192.04,301.48c-3.46,0-6.56-.54-9.31-1.62-2.75-1.08-4.9-2.77-6.45-5.05-1.55-2.28-2.33-5.21-2.33-8.78s.83-7.25,2.5-10.84c1.67-3.6,4.11-7.16,7.33-10.67-.94-.94-1.77-1.73-2.5-2.37-.73-.64-1.33-1.17-1.8-1.58l9.66-11.5c7.03,5.74,12.51,11.67,16.47,17.78,3.95,6.12,5.93,12.02,5.93,17.69s-1.77,9.56-5.31,12.51c-3.54,2.96-8.27,4.44-14.18,4.44ZM192.56,284.53c3.1,0,4.65-1.11,4.65-3.34,0-.76-.18-1.57-.53-2.42-.35-.85-.86-1.74-1.54-2.68-.67-.94-1.54-1.87-2.59-2.81-1,.94-1.84,1.87-2.55,2.81-.7.94-1.24,1.84-1.62,2.72-.38.88-.57,1.7-.57,2.46,0,2.17,1.58,3.25,4.74,3.25Z"/>
        <path class="cls-1" d="M211.01,324.84l-7.03-14.58c4.92-1.93,8.84-3.81,11.77-5.62,2.93-1.82,5.04-3.72,6.32-5.71,1.29-1.99,1.93-4.19,1.93-6.59,0-2.05-.37-4.23-1.1-6.54-.73-2.31-1.86-5.31-3.38-9l13.79-7.46c2.22,4.92,3.76,9.08,4.61,12.47.85,3.4,1.27,6.64,1.27,9.75,0,7.38-2.36,13.77-7.07,19.19-4.71,5.41-11.75,10.11-21.12,14.09Z"/>
        <path class="cls-1" d="M253.68,253.62v-4.92l5.44-1.76v-.18c-1.11-.47-2.02-1.19-2.72-2.15-.7-.97-1.05-2.21-1.05-3.73,0-2.58.81-4.64,2.42-6.19,1.61-1.55,3.56-2.33,5.84-2.33,1.35,0,2.59.26,3.73.79,1.14.53,2.18,1.23,3.12,2.11l-2.46,3.6c-1.29-.88-2.52-1.32-3.69-1.32-1.29,0-2.34.37-3.16,1.1-.82.73-1.23,1.66-1.23,2.77,0,.94.4,1.7,1.19,2.28.79.59,1.92.88,3.38.88.76,0,1.59-.07,2.5-.22.91-.15,2.03-.39,3.38-.75l1.32-.44v4.83l-18,5.62Z"/>
        <path class="cls-1" d="M252.02,324.84l-7.03-14.58c5.33-1.76,9.48-3.21,12.47-4.35,2.99-1.14,5.18-2.14,6.59-2.99,1.4-.85,2.31-1.68,2.72-2.5l-.35-1.05c-1.11.18-2.14.31-3.07.4s-1.9.13-2.9.13c-3.04,0-5.68-.4-7.9-1.19-2.23-.79-3.95-2.18-5.18-4.17s-1.84-4.86-1.84-8.61c0-3.28.41-6.45,1.23-9.53.82-3.07,1.99-5.81,3.51-8.21,1.52-2.4,3.34-4.3,5.44-5.71,2.11-1.41,4.42-2.11,6.94-2.11,2.28,0,4.46.6,6.54,1.8,2.08,1.2,3.95,2.88,5.62,5.05,1.67,2.17,3.07,4.68,4.21,7.55,1.14,2.87,1.92,5.97,2.33,9.31h2.11v16.95h-2.9c-1.11,3.75-2.88,7.1-5.31,10.05-2.43,2.96-5.56,5.55-9.4,7.77-3.83,2.22-8.45,4.22-13.83,5.97ZM262.38,284.35c1,0,1.99-.03,2.99-.09.99-.06,1.96-.15,2.9-.26l.18-.53c-.23-.99-.57-1.92-1.01-2.77-.44-.85-.92-1.59-1.45-2.24-.53-.64-1.13-1.14-1.8-1.49-.67-.35-1.42-.53-2.24-.53-.94,0-1.76.24-2.46.7-.7.47-1.23,1.08-1.58,1.84-.35.76-.53,1.58-.53,2.46,0,1.11.39,1.87,1.18,2.28.79.41,2.06.62,3.82.62Z"/>
        <path class="cls-1" d="M291.45,323.96l-8.52-8.52,8.52-8.43,8.52,8.43-8.52,8.52Z"/>
        <path class="cls-1" d="M283.45,301.04c-.58,0-1.04-.66-1.36-1.98-.32-1.32-.48-3.5-.48-6.54s.17-5.28.53-6.54c.35-1.26.79-1.89,1.32-1.89h3.34c2.4,0,4.21-.29,5.44-.88s2.08-1.48,2.55-2.68c.47-1.2.7-2.71.7-4.52v-7.38h15.37v7.38c0,1.82.23,3.32.7,4.52.47,1.2,1.3,2.09,2.5,2.68,1.2.58,2.85.88,4.96.88h1.23v16.95h-1.32c-3.28,0-6.31-.58-9.09-1.76-2.78-1.17-4.84-2.72-6.19-4.65h-1.14c-.88,1.23-2.12,2.33-3.73,3.29-1.61.97-3.44,1.73-5.49,2.28-2.05.56-4.21.83-6.5.83h-3.34Z"/>
        <path class="cls-1" d="M343.26,238.08v41.89c0,7.32-1.86,12.66-5.58,16.03-3.72,3.37-8.59,5.05-14.62,5.05h-2.81c-.41,0-.82-.56-1.23-1.67-.41-1.11-.61-3.39-.61-6.85s.21-5.72.61-6.81c.41-1.08.82-1.62,1.23-1.62h.35c2.75,0,4.65-.62,5.71-1.84s1.58-3.01,1.58-5.36v-38.81h15.37Z"/>
        <path class="cls-1" d="M351.16,301.04v-62.96h15.37v62.96h-15.37Z"/>
        <path class="cls-1" d="M410.88,346.26l-8.52-8.52,8.52-8.43,8.52,8.43-8.52,8.52ZM425.8,346.26l-8.52-8.52,8.52-8.43,8.52,8.43-8.52,8.52Z"/>
        <path class="cls-1" d="M418.34,324.14c-8.72,0-15.44-2.08-20.15-6.24-4.71-4.16-7.07-9.89-7.07-17.21,0-3.1.41-6.83,1.23-11.2.82-4.36,1.96-8.68,3.42-12.95l13,3.78c-1,3.1-1.8,6.28-2.42,9.53-.62,3.25-.92,5.96-.92,8.12s.4,3.85,1.19,5.22c.79,1.38,2.2,2.4,4.22,3.07s4.9,1.01,8.65,1.01c2.99,0,5.68-.19,8.08-.57,2.4-.38,4.29-.89,5.66-1.54,1.38-.64,2.06-1.29,2.06-1.93,0-.35-.37-.7-1.1-1.05-.73-.35-2.28-.75-4.65-1.19-2.37-.44-5.99-.95-10.84-1.54l2.9-15.37h25.99v16.95h.26v.44c.12.29.23.7.35,1.23.12.53.18,1.2.18,2.02,0,3.63-1.3,6.92-3.91,9.88-2.61,2.96-6.18,5.28-10.71,6.98-4.54,1.7-9.67,2.55-15.41,2.55Z"/>
        <path class="cls-1" d="M466.46,236.41l-8.52-8.52,8.52-8.43,8.52,8.43-8.52,8.52Z"/>
        <path class="cls-1" d="M447.58,301.04c-1.23,0-1.84-2.84-1.84-8.52s.61-8.43,1.84-8.43h8.34c5.09,0,8.9-.56,11.42-1.67,2.52-1.11,4.16-2.37,4.92-3.78l-.17-.26c-.94.23-2.09.42-3.47.57-1.38.15-2.77.22-4.17.22-4.57,0-8.09-.91-10.58-2.72-2.49-1.81-3.73-5.18-3.73-10.1,0-4.27.73-8.17,2.2-11.68,1.46-3.51,3.44-6.34,5.93-8.47,2.49-2.14,5.22-3.21,8.21-3.21,2.46,0,4.81.73,7.07,2.2,2.25,1.46,4.26,3.51,6.02,6.15,1.76,2.63,3.15,5.68,4.17,9.13,1.02,3.46,1.54,7.2,1.54,11.24,0,9.89-2.5,17.26-7.51,22.08-5.01,4.83-12.84,7.25-23.49,7.25h-6.67ZM465.76,265.3c1,0,1.98-.06,2.94-.18.97-.12,1.92-.26,2.85-.44l.09-.35c-.41-1.23-.92-2.31-1.54-3.25-.61-.94-1.32-1.67-2.11-2.2-.79-.53-1.68-.79-2.68-.79-.88,0-1.62.24-2.24.7-.61.47-1.08,1.07-1.4,1.8-.32.73-.48,1.54-.48,2.42,0,.76.32,1.33.97,1.71.64.38,1.84.57,3.6.57Z"/>
      </g>
    </g>
  </g>
</svg>